<svg id="svg" version="1.1" xmlns="http://www.w3.org/2000/svg" xmlns:xlink="http://www.w3.org/1999/xlink" width="400" height="400" viewBox="0, 0, 400,400"><g id="svgg"><path id="path0" d="M245.000 39.978 C 244.560 40.149,243.615 40.268,242.900 40.244 C 242.185 40.220,241.600 40.323,241.600 40.474 C 241.600 40.624,241.162 40.668,240.626 40.570 C 240.090 40.473,239.539 40.575,239.402 40.797 C 239.265 41.019,238.798 41.200,238.364 41.200 C 237.930 41.200,237.477 41.456,237.357 41.769 C 237.236 42.082,236.873 42.440,236.548 42.564 C 236.154 42.716,236.057 42.626,236.256 42.295 C 236.425 42.014,236.238 42.056,235.823 42.394 C 235.421 42.721,234.891 42.998,234.646 43.011 C 233.776 43.055,232.000 44.136,232.000 44.621 C 232.000 44.893,231.705 45.228,231.343 45.366 C 230.861 45.552,230.781 45.479,231.043 45.090 C 231.588 44.284,230.303 45.723,229.434 46.893 C 229.012 47.460,228.425 47.831,228.129 47.717 C 227.750 47.572,227.672 47.721,227.863 48.221 C 228.037 48.672,227.982 48.836,227.713 48.670 C 227.481 48.526,227.045 48.711,226.745 49.081 C 226.281 49.654,226.284 49.703,226.768 49.411 C 227.107 49.207,227.026 49.482,226.568 50.093 C 226.146 50.656,225.661 51.033,225.490 50.929 C 225.320 50.825,225.223 50.889,225.275 51.070 C 225.453 51.687,224.336 53.396,222.866 54.758 C 222.060 55.505,221.749 55.865,222.176 55.558 C 222.815 55.099,222.783 55.232,222.001 56.300 C 221.093 57.540,220.436 58.112,221.038 57.138 C 221.211 56.859,221.148 56.785,220.879 56.951 C 220.635 57.102,220.525 57.460,220.635 57.747 C 220.745 58.034,220.453 58.703,219.987 59.234 C 219.521 59.765,219.271 59.947,219.431 59.638 C 219.625 59.265,219.566 59.174,219.255 59.366 C 218.998 59.525,218.890 59.822,219.016 60.026 C 219.142 60.230,218.750 60.855,218.146 61.415 C 217.294 62.204,217.222 62.379,217.823 62.191 C 218.251 62.058,218.112 62.233,217.515 62.580 C 216.907 62.933,216.519 63.444,216.633 63.741 C 216.745 64.033,216.560 64.501,216.223 64.781 C 215.885 65.061,215.725 65.478,215.866 65.707 C 216.008 65.936,215.940 66.010,215.715 65.871 C 215.240 65.578,213.745 67.079,214.130 67.463 C 214.271 67.605,214.075 67.977,213.694 68.290 C 213.312 68.603,213.238 68.737,213.530 68.588 C 213.964 68.365,213.968 68.462,213.549 69.132 C 213.269 69.581,212.868 69.842,212.658 69.712 C 212.448 69.583,212.402 69.680,212.557 69.930 C 212.817 70.351,211.377 72.833,210.698 73.134 C 210.531 73.208,210.494 73.429,210.616 73.626 C 210.958 74.179,210.016 75.657,209.518 75.349 C 209.252 75.185,209.190 75.260,209.362 75.538 C 209.519 75.792,209.446 76.000,209.200 76.000 C 208.954 76.000,208.857 76.169,208.985 76.376 C 209.113 76.583,208.835 77.109,208.366 77.546 C 207.898 77.982,207.622 78.512,207.753 78.724 C 207.884 78.936,207.725 79.330,207.400 79.600 C 207.075 79.870,206.907 80.250,207.028 80.445 C 207.149 80.640,207.062 80.800,206.836 80.800 C 206.610 80.800,206.520 81.046,206.635 81.347 C 206.750 81.648,206.281 82.457,205.593 83.146 C 204.883 83.855,204.642 84.282,205.036 84.131 C 205.509 83.949,205.639 84.013,205.442 84.332 C 205.283 84.589,204.899 84.800,204.589 84.800 C 204.252 84.800,204.118 85.042,204.255 85.400 C 204.382 85.730,204.292 86.000,204.055 86.000 C 203.819 86.000,203.722 86.254,203.841 86.564 C 204.121 87.292,202.884 89.699,202.388 89.392 C 202.179 89.264,202.116 89.438,202.247 89.779 C 202.378 90.121,202.286 90.400,202.043 90.400 C 201.799 90.400,201.600 90.648,201.600 90.951 C 201.600 91.254,201.317 91.737,200.972 92.023 C 200.627 92.310,200.431 92.875,200.537 93.279 C 200.642 93.683,200.472 94.271,200.157 94.586 C 199.843 94.900,199.610 95.302,199.640 95.479 C 199.776 96.281,199.565 96.826,199.205 96.603 C 198.970 96.458,198.916 96.637,199.073 97.045 C 199.230 97.455,199.176 97.632,198.938 97.486 C 198.718 97.350,198.554 97.633,198.570 98.120 C 198.587 98.604,198.393 98.961,198.141 98.914 C 197.870 98.863,197.766 99.147,197.886 99.609 C 198.017 100.109,197.847 100.484,197.412 100.651 C 196.872 100.858,196.842 100.981,197.266 101.250 C 197.682 101.513,197.653 101.589,197.137 101.594 C 196.704 101.598,196.538 101.843,196.658 102.301 C 196.889 103.184,195.697 106.107,195.225 105.816 C 195.032 105.696,194.976 105.986,195.100 106.459 C 195.231 106.961,195.091 107.503,194.762 107.761 C 194.144 108.247,193.869 109.017,193.920 110.121 C 193.939 110.518,193.689 110.945,193.365 111.069 C 192.983 111.215,192.866 111.577,193.031 112.097 C 193.200 112.630,193.137 112.808,192.843 112.627 C 192.577 112.462,192.426 112.641,192.464 113.077 C 192.608 114.738,192.413 115.437,191.982 114.800 C 191.680 114.355,191.642 114.484,191.831 115.300 C 191.989 115.977,191.921 116.400,191.656 116.400 C 191.418 116.400,191.340 116.699,191.481 117.066 C 191.631 117.457,191.573 117.631,191.340 117.487 C 191.101 117.339,191.013 117.707,191.118 118.421 C 191.225 119.154,191.114 119.600,190.822 119.600 C 190.564 119.600,190.481 119.392,190.638 119.138 C 190.815 118.852,190.748 118.785,190.460 118.963 C 190.203 119.122,190.100 119.659,190.228 120.170 C 190.385 120.796,190.257 121.169,189.830 121.333 C 189.483 121.466,189.203 121.806,189.206 122.087 C 189.210 122.446,189.329 122.420,189.600 122.000 C 189.813 121.670,189.991 121.585,189.994 121.811 C 189.997 122.037,189.699 122.652,189.331 123.177 C 188.963 123.703,188.871 124.003,189.126 123.846 C 189.430 123.658,189.509 123.773,189.354 124.177 C 189.223 124.517,188.957 124.697,188.763 124.577 C 188.568 124.457,188.516 124.638,188.647 124.979 C 188.778 125.321,188.724 125.600,188.527 125.600 C 188.330 125.600,188.176 126.095,188.184 126.700 C 188.194 127.355,188.003 127.761,187.714 127.705 C 187.434 127.650,187.325 127.861,187.457 128.205 C 187.583 128.532,187.492 128.800,187.255 128.800 C 187.019 128.800,186.929 129.070,187.055 129.400 C 187.182 129.730,187.092 130.000,186.855 130.000 C 186.619 130.000,186.531 130.277,186.661 130.615 C 186.791 130.953,186.577 131.583,186.187 132.015 C 185.727 132.523,185.651 132.800,185.971 132.800 C 186.244 132.800,186.384 133.025,186.283 133.300 C 186.182 133.575,185.936 133.768,185.736 133.729 C 185.400 133.663,185.253 134.290,185.180 136.109 C 185.164 136.498,184.963 136.701,184.733 136.559 C 184.473 136.398,184.403 136.583,184.548 137.050 C 184.677 137.462,184.609 138.070,184.397 138.400 C 184.185 138.730,184.003 138.820,183.992 138.600 C 183.967 138.106,182.831 140.045,182.820 140.600 C 182.816 140.820,182.980 140.735,183.184 140.412 C 183.389 140.088,183.659 139.925,183.784 140.051 C 183.909 140.176,183.648 140.740,183.203 141.305 C 182.733 141.903,182.573 142.391,182.821 142.474 C 183.054 142.551,183.127 142.926,182.981 143.305 C 182.835 143.685,182.585 143.914,182.425 143.815 C 182.145 143.643,182.012 144.195,181.970 145.700 C 181.959 146.085,181.781 146.400,181.575 146.400 C 181.369 146.400,181.240 147.310,181.288 148.422 C 181.344 149.711,181.191 150.558,180.867 150.759 C 180.587 150.932,180.389 151.237,180.426 151.437 C 180.570 152.199,180.378 152.764,179.771 153.371 C 179.426 153.717,179.330 154.000,179.559 154.000 C 179.788 154.000,179.872 154.269,179.746 154.598 C 179.619 154.926,179.336 155.084,179.115 154.948 C 178.871 154.797,178.813 155.010,178.966 155.494 C 179.256 156.407,178.871 157.691,178.395 157.397 C 178.219 157.288,178.176 157.587,178.300 158.062 C 178.445 158.615,178.373 158.831,178.100 158.662 C 177.828 158.493,177.756 158.709,177.900 159.262 C 178.024 159.737,177.963 160.024,177.763 159.901 C 177.423 159.690,177.242 160.599,177.206 162.700 C 177.198 163.195,177.013 163.600,176.796 163.600 C 176.578 163.600,176.400 163.960,176.400 164.400 C 176.400 164.840,176.220 165.200,176.000 165.200 C 175.780 165.200,175.600 165.391,175.600 165.624 C 175.600 165.857,175.778 165.937,175.995 165.803 C 176.222 165.663,176.289 165.823,176.153 166.179 C 176.022 166.521,175.779 166.800,175.613 166.800 C 175.447 166.800,175.392 167.222,175.490 167.737 C 175.592 168.269,175.397 168.946,175.038 169.305 C 174.566 169.776,174.532 169.986,174.904 170.136 C 175.186 170.250,175.087 170.350,174.673 170.368 C 174.144 170.391,174.012 170.608,174.189 171.166 C 174.323 171.588,174.262 172.038,174.054 172.167 C 173.846 172.295,173.764 172.806,173.872 173.300 C 174.032 174.031,173.987 174.087,173.629 173.600 C 173.288 173.135,173.223 173.342,173.342 174.524 C 173.430 175.400,173.285 176.258,173.000 176.543 C 172.728 176.815,172.551 177.612,172.606 178.313 C 172.661 179.015,172.564 179.501,172.390 179.394 C 172.217 179.287,172.176 179.587,172.300 180.062 C 172.470 180.709,172.393 180.843,171.995 180.597 C 171.604 180.355,171.535 180.453,171.732 180.966 C 172.156 182.072,171.576 184.014,171.129 182.985 C 170.879 182.411,170.849 182.512,171.017 183.362 C 171.156 184.066,171.057 184.641,170.765 184.822 C 170.500 184.985,170.377 185.362,170.491 185.660 C 170.751 186.339,170.678 187.026,170.356 186.919 C 170.221 186.874,170.136 187.234,170.167 187.719 C 170.198 188.203,170.050 188.721,169.837 188.870 C 169.600 189.036,169.647 189.374,169.960 189.752 C 170.531 190.440,170.183 191.360,169.510 190.944 C 169.214 190.762,169.155 191.074,169.324 191.922 C 169.462 192.608,169.408 193.272,169.204 193.397 C 169.001 193.523,168.948 193.919,169.085 194.278 C 169.253 194.715,169.181 194.835,168.868 194.642 C 168.590 194.470,168.400 194.597,168.400 194.953 C 168.400 195.283,168.569 195.657,168.776 195.785 C 169.007 195.928,168.987 196.491,168.724 197.247 C 168.399 198.179,168.204 198.347,167.919 197.939 C 167.661 197.569,167.593 197.808,167.702 198.700 C 167.790 199.415,167.690 200.000,167.480 200.000 C 167.257 200.000,167.206 200.679,167.358 201.629 C 167.507 202.562,167.465 203.164,167.259 203.037 C 167.062 202.915,166.884 203.216,166.865 203.707 C 166.817 204.924,166.636 205.706,166.265 206.300 C 166.077 206.601,166.154 206.800,166.456 206.800 C 166.829 206.800,166.843 206.917,166.511 207.249 C 166.264 207.496,166.169 207.975,166.299 208.314 C 166.467 208.752,166.382 208.836,166.006 208.604 C 165.663 208.392,165.572 208.431,165.748 208.716 C 166.149 209.365,164.788 214.440,164.294 214.135 C 164.028 213.970,163.980 214.265,164.158 214.974 C 164.331 215.662,164.285 215.976,164.034 215.821 C 163.800 215.676,163.669 216.020,163.717 216.650 C 163.763 217.242,163.575 217.803,163.300 217.896 C 162.992 218.001,162.800 217.700,162.800 217.113 C 162.800 216.589,162.631 215.989,162.425 215.780 C 162.219 215.571,161.972 214.500,161.875 213.400 C 161.778 212.300,161.506 210.920,161.272 210.333 C 161.037 209.746,160.858 208.936,160.874 208.533 C 160.890 208.130,160.711 207.000,160.477 206.022 C 160.242 205.043,160.130 204.114,160.227 203.956 C 160.325 203.798,160.199 203.600,159.948 203.516 C 159.697 203.432,159.491 202.607,159.491 201.682 C 159.491 200.757,159.372 200.000,159.227 200.000 C 159.082 200.000,158.919 199.334,158.864 198.519 C 158.809 197.705,158.547 196.770,158.282 196.443 C 157.924 196.000,157.922 195.920,158.273 196.130 C 158.567 196.306,158.513 195.949,158.132 195.184 C 157.795 194.508,157.610 193.604,157.722 193.177 C 157.834 192.749,157.762 192.500,157.563 192.623 C 157.203 192.845,157.004 191.429,157.153 189.700 C 157.195 189.205,157.043 188.800,156.815 188.800 C 156.587 188.800,156.421 188.665,156.447 188.500 C 156.628 187.358,156.335 185.593,156.000 185.800 C 155.780 185.936,155.600 185.677,155.600 185.224 C 155.600 184.055,155.625 184.172,154.980 182.343 C 154.656 181.426,154.482 180.585,154.592 180.474 C 154.703 180.364,154.603 180.045,154.371 179.765 C 154.138 179.485,153.933 178.709,153.914 178.042 C 153.895 177.374,153.726 176.922,153.540 177.037 C 153.215 177.238,153.018 176.023,153.183 174.843 C 153.226 174.536,153.062 174.162,152.818 174.011 C 152.574 173.860,152.311 173.121,152.234 172.368 C 152.157 171.616,151.890 170.485,151.640 169.855 C 151.390 169.225,151.217 168.505,151.256 168.255 C 151.295 168.005,151.210 167.530,151.068 167.200 C 150.926 166.870,150.753 166.240,150.685 165.800 C 150.617 165.360,150.329 164.577,150.044 164.059 C 149.760 163.542,149.622 162.759,149.737 162.320 C 149.852 161.880,149.829 161.638,149.686 161.780 C 149.544 161.923,149.235 161.356,149.000 160.520 C 148.765 159.684,148.308 158.976,147.986 158.946 C 147.664 158.917,146.984 158.872,146.476 158.846 C 145.968 158.821,145.654 158.636,145.778 158.435 C 145.908 158.226,144.595 158.078,142.702 158.089 C 140.812 158.100,139.742 158.234,140.200 158.403 C 140.715 158.592,140.144 158.719,138.600 158.760 C 135.449 158.843,133.297 159.093,132.733 159.442 C 132.452 159.615,132.386 159.546,132.562 159.262 C 132.923 158.677,131.911 158.649,131.332 159.228 C 131.097 159.463,129.906 159.685,128.686 159.720 C 127.466 159.756,126.535 159.895,126.618 160.028 C 126.757 160.255,126.050 160.353,123.000 160.530 C 122.340 160.569,121.706 160.725,121.590 160.878 C 121.475 161.031,120.485 161.203,119.390 161.261 C 118.296 161.318,117.202 161.508,116.960 161.682 C 116.717 161.856,115.997 162.037,115.360 162.083 C 114.722 162.129,114.083 162.336,113.940 162.543 C 113.796 162.750,113.256 162.943,112.740 162.972 C 112.223 163.000,111.563 163.171,111.273 163.352 C 110.984 163.532,110.640 163.574,110.510 163.444 C 110.380 163.313,110.034 163.406,109.742 163.648 C 109.449 163.891,108.928 163.981,108.584 163.849 C 108.240 163.717,107.523 163.894,106.992 164.242 C 106.460 164.590,105.795 164.798,105.513 164.703 C 105.231 164.608,104.402 164.865,103.670 165.275 C 102.875 165.721,102.456 165.815,102.629 165.510 C 102.860 165.101,102.810 165.099,102.379 165.500 C 102.082 165.775,101.516 166.000,101.120 166.000 C 100.724 166.000,100.400 166.180,100.400 166.400 C 100.400 166.620,99.944 166.800,99.387 166.800 C 98.831 166.800,98.267 167.080,98.136 167.423 C 98.004 167.766,97.643 167.949,97.333 167.830 C 97.023 167.711,96.670 167.874,96.548 168.192 C 96.426 168.509,95.938 168.886,95.463 169.028 C 94.988 169.170,93.795 170.032,92.811 170.943 C 91.828 171.854,91.361 172.195,91.773 171.700 C 92.895 170.355,92.322 170.615,90.975 172.062 C 90.329 172.756,90.038 173.187,90.330 173.020 C 90.765 172.770,90.768 172.862,90.349 173.532 C 90.069 173.981,89.668 174.242,89.457 174.112 C 89.235 173.975,89.169 174.238,89.300 174.737 C 89.449 175.308,89.341 175.600,88.982 175.600 C 88.347 175.600,88.177 188.015,88.807 188.404 C 89.003 188.525,89.207 189.282,89.262 190.086 C 89.316 190.890,89.504 191.459,89.680 191.351 C 89.979 191.166,90.176 192.374,90.030 193.500 C 89.994 193.775,90.153 194.000,90.382 194.000 C 90.612 194.000,90.800 194.191,90.800 194.424 C 90.800 194.657,90.632 194.744,90.427 194.617 C 90.222 194.490,90.326 194.931,90.658 195.596 C 91.242 196.767,91.717 199.066,91.672 200.500 C 91.660 200.885,91.819 201.200,92.025 201.200 C 92.231 201.200,92.400 201.614,92.400 202.120 C 92.400 202.626,92.616 203.256,92.880 203.520 C 93.253 203.893,93.231 204.001,92.780 204.006 C 92.331 204.011,92.315 204.085,92.710 204.336 C 92.990 204.513,93.244 205.321,93.274 206.129 C 93.305 206.938,93.441 207.600,93.578 207.600 C 93.794 207.600,93.999 208.656,94.102 210.300 C 94.119 210.575,94.245 210.800,94.382 210.800 C 94.626 210.800,94.816 211.760,94.911 213.474 C 94.938 213.955,95.104 214.259,95.280 214.151 C 95.602 213.952,95.752 214.968,95.668 216.772 C 95.643 217.307,95.803 217.963,96.024 218.229 C 96.245 218.495,96.465 219.255,96.513 219.917 C 96.561 220.580,96.735 221.039,96.900 220.937 C 97.191 220.758,97.354 222.051,97.274 223.913 C 97.253 224.415,97.407 224.719,97.617 224.589 C 97.828 224.459,98.031 224.858,98.068 225.476 C 98.174 227.217,98.263 227.749,98.562 228.439 C 98.714 228.790,98.880 229.510,98.930 230.039 C 98.980 230.567,99.216 231.360,99.456 231.800 C 99.695 232.240,99.850 233.050,99.800 233.600 C 99.750 234.150,99.888 234.715,100.105 234.855 C 100.322 234.994,100.498 235.624,100.495 236.255 C 100.492 236.885,100.600 237.580,100.734 237.800 C 101.063 238.341,101.238 239.185,101.290 240.482 C 101.314 241.078,101.483 241.472,101.667 241.359 C 101.850 241.245,102.023 241.613,102.050 242.176 C 102.116 243.528,102.157 243.714,102.520 244.285 C 102.690 244.552,102.845 245.587,102.865 246.585 C 102.885 247.583,103.020 248.400,103.166 248.400 C 103.311 248.400,103.472 248.951,103.523 249.625 C 103.654 251.336,103.756 251.767,104.095 252.020 C 104.257 252.141,104.448 252.780,104.520 253.438 C 104.593 254.097,104.803 254.881,104.988 255.180 C 105.234 255.579,105.174 255.634,104.762 255.385 C 104.295 255.104,104.287 255.154,104.713 255.679 C 104.995 256.028,105.265 256.872,105.313 257.555 C 105.361 258.239,105.497 258.799,105.615 258.799 C 105.808 258.800,106.039 260.249,106.136 262.071 C 106.155 262.439,106.313 262.654,106.486 262.547 C 106.775 262.368,106.886 263.156,106.903 265.500 C 106.907 265.995,107.027 266.400,107.170 266.400 C 107.456 266.400,107.669 267.602,107.684 269.300 C 107.689 269.905,107.822 270.400,107.980 270.400 C 108.289 270.400,108.344 270.655,108.499 272.800 C 108.555 273.570,108.740 274.416,108.911 274.680 C 109.083 274.944,109.247 275.799,109.276 276.580 C 109.306 277.361,109.450 278.000,109.598 278.000 C 109.746 278.000,109.880 278.225,109.896 278.500 C 109.998 280.260,110.318 282.344,110.541 282.705 C 110.685 282.938,110.835 283.640,110.874 284.264 C 110.913 284.889,111.137 285.660,111.373 285.977 C 111.711 286.434,111.675 286.480,111.200 286.200 C 110.690 285.900,110.679 285.944,111.126 286.496 C 111.416 286.853,111.678 287.923,111.709 288.873 C 111.740 289.823,111.919 290.708,112.108 290.839 C 112.296 290.971,112.484 291.808,112.525 292.700 C 112.566 293.591,112.735 294.238,112.900 294.137 C 113.169 293.972,113.266 294.714,113.335 297.475 C 113.348 297.956,113.502 298.261,113.679 298.151 C 113.968 297.972,114.205 300.596,114.021 301.940 C 113.980 302.237,114.139 302.362,114.373 302.217 C 114.790 301.959,114.930 302.817,114.878 305.307 C 114.865 305.915,115.023 306.310,115.227 306.183 C 115.549 305.984,115.815 307.529,115.633 308.542 C 115.600 308.730,115.780 309.135,116.035 309.442 C 116.290 309.749,116.381 310.000,116.239 310.000 C 116.096 310.000,116.244 310.512,116.568 311.138 C 116.892 311.764,117.194 313.159,117.241 314.238 C 117.287 315.317,117.494 316.537,117.702 316.948 C 117.980 317.499,117.953 317.618,117.600 317.400 C 117.227 317.170,117.227 317.303,117.600 318.001 C 117.864 318.494,118.117 320.131,118.162 321.637 C 118.207 323.144,118.368 324.502,118.522 324.655 C 118.675 324.808,118.800 325.613,118.800 326.443 C 118.800 327.273,118.980 328.064,119.200 328.200 C 119.420 328.336,119.597 328.662,119.594 328.924 C 119.590 329.210,119.433 329.161,119.200 328.800 C 118.967 328.439,118.810 328.390,118.806 328.676 C 118.803 328.938,118.980 329.264,119.200 329.400 C 119.420 329.536,119.606 330.312,119.613 331.124 C 119.620 331.936,119.884 332.942,120.200 333.359 C 120.516 333.776,120.671 334.285,120.545 334.489 C 120.419 334.692,120.653 335.251,121.065 335.730 C 122.419 337.303,123.719 339.321,123.154 338.972 C 122.331 338.464,124.476 341.022,125.342 341.580 C 125.869 341.921,126.002 341.926,125.800 341.600 C 125.621 341.310,125.827 341.335,126.358 341.667 C 126.821 341.956,127.200 342.317,127.200 342.469 C 127.200 342.621,127.773 343.153,128.472 343.651 C 129.175 344.152,129.594 344.298,129.408 343.979 C 129.223 343.660,129.579 343.850,130.200 344.400 C 130.821 344.950,131.191 345.162,131.023 344.870 C 130.769 344.432,130.861 344.431,131.558 344.867 C 132.021 345.156,132.400 345.548,132.400 345.739 C 132.400 345.930,132.677 345.979,133.015 345.850 C 133.365 345.715,133.728 345.869,133.858 346.207 C 134.003 346.585,134.441 346.736,135.064 346.623 C 135.678 346.511,136.125 346.661,136.264 347.023 C 136.386 347.340,136.826 347.600,137.243 347.600 C 137.659 347.600,138.000 347.780,138.000 348.000 C 138.000 348.220,138.641 348.400,139.424 348.400 C 140.207 348.400,140.749 348.560,140.628 348.755 C 140.507 348.950,140.632 349.102,140.904 349.092 C 142.368 349.039,143.219 349.245,143.000 349.600 C 142.862 349.823,143.168 350.000,143.692 350.000 C 144.208 350.000,145.297 350.340,146.111 350.755 C 146.925 351.170,147.477 351.305,147.337 351.055 C 147.188 350.788,147.305 350.807,147.621 351.100 C 147.918 351.375,148.585 351.600,149.104 351.600 C 149.631 351.600,149.938 351.777,149.800 352.000 C 149.653 352.239,150.137 352.400,151.000 352.400 C 151.796 352.400,152.360 352.542,152.252 352.715 C 152.145 352.888,152.530 353.069,153.106 353.117 C 153.683 353.165,154.255 353.347,154.378 353.521 C 154.500 353.696,155.034 353.866,155.564 353.899 C 156.094 353.933,156.634 354.113,156.764 354.299 C 156.894 354.486,157.447 354.667,157.994 354.701 C 158.541 354.736,159.047 354.942,159.120 355.160 C 159.192 355.377,159.512 355.455,159.831 355.333 C 160.150 355.211,160.702 355.353,161.059 355.649 C 161.731 356.207,161.849 356.237,163.724 356.339 C 164.350 356.373,164.739 356.575,164.603 356.795 C 164.462 357.023,164.624 357.089,164.982 356.951 C 165.325 356.820,166.048 357.002,166.589 357.356 C 167.130 357.710,168.219 358.000,169.010 358.000 C 169.800 358.000,170.349 358.160,170.228 358.355 C 170.107 358.550,170.232 358.702,170.504 358.692 C 172.349 358.625,173.615 358.852,173.394 359.210 C 173.255 359.435,173.289 359.594,173.470 359.563 C 174.941 359.307,176.403 359.672,176.428 360.300 C 176.452 360.899,176.506 360.884,176.800 360.200 C 176.989 359.760,177.156 359.596,177.172 359.836 C 177.229 360.719,179.213 361.145,182.861 361.056 C 186.137 360.977,186.585 360.881,186.482 360.283 C 186.408 359.848,186.627 359.600,187.087 359.600 C 187.484 359.600,188.255 359.060,188.800 358.400 C 189.345 357.740,189.988 357.200,190.228 357.200 C 190.468 357.200,190.902 356.756,191.193 356.214 C 191.483 355.671,191.886 355.330,192.089 355.455 C 192.292 355.581,193.480 354.653,194.729 353.393 C 197.996 350.100,199.337 348.914,199.021 349.600 C 198.868 349.930,199.456 349.435,200.326 348.500 C 201.197 347.565,202.031 346.800,202.180 346.800 C 202.330 346.800,203.428 345.808,204.622 344.596 C 205.815 343.383,206.890 342.399,207.011 342.408 C 207.131 342.418,207.690 341.879,208.252 341.212 C 208.813 340.544,209.437 340.099,209.636 340.223 C 209.836 340.346,210.000 340.161,210.000 339.811 C 210.000 339.461,210.405 339.024,210.900 338.841 C 211.395 338.658,211.755 338.394,211.700 338.254 C 211.645 338.114,211.681 337.991,211.780 337.979 C 212.212 337.928,214.590 335.445,214.500 335.139 C 214.445 334.952,214.578 334.800,214.795 334.800 C 215.454 334.800,216.777 333.606,221.336 328.900 C 223.734 326.425,225.974 324.400,226.315 324.400 C 226.655 324.400,226.808 324.275,226.655 324.122 C 226.253 323.720,231.656 318.392,232.170 318.684 C 232.406 318.818,232.460 318.775,232.290 318.587 C 231.924 318.185,235.935 314.000,236.686 314.000 C 236.969 314.000,237.200 313.764,237.200 313.475 C 237.200 313.187,237.745 312.548,238.411 312.055 C 239.077 311.563,239.531 311.013,239.421 310.833 C 239.310 310.654,239.620 310.168,240.109 309.753 L 241.000 309.000 240.200 309.957 L 239.400 310.913 240.277 310.375 C 240.760 310.078,241.260 309.416,241.389 308.902 C 241.518 308.388,241.778 308.063,241.966 308.179 C 242.433 308.468,243.268 307.409,242.897 306.999 C 242.733 306.819,242.814 306.795,243.076 306.945 C 243.355 307.105,244.016 306.635,244.676 305.809 C 245.294 305.034,246.025 304.400,246.300 304.400 C 246.575 304.400,246.755 304.175,246.700 303.900 C 246.645 303.625,246.825 303.445,247.100 303.500 C 247.375 303.555,247.555 303.375,247.500 303.100 C 247.445 302.825,247.625 302.645,247.900 302.700 C 248.175 302.755,248.400 302.607,248.400 302.371 C 248.400 301.868,249.594 300.587,249.612 301.071 C 249.619 301.252,249.810 301.081,250.037 300.692 C 250.264 300.302,250.598 300.075,250.780 300.187 C 250.962 300.300,251.774 299.582,252.586 298.591 C 253.397 297.601,254.182 296.864,254.331 296.953 C 254.479 297.043,254.832 296.865,255.116 296.558 C 255.399 296.251,255.489 295.997,255.316 295.994 C 255.142 295.991,255.270 295.820,255.600 295.614 C 256.555 295.020,258.347 293.515,259.905 292.000 C 260.697 291.230,261.493 290.645,261.673 290.700 C 261.853 290.755,262.000 290.606,262.000 290.369 C 262.000 290.132,262.526 289.412,263.169 288.769 C 264.380 287.559,265.065 287.228,264.555 288.100 C 264.394 288.375,264.649 288.261,265.122 287.847 C 265.594 287.432,265.885 286.937,265.767 286.747 C 265.649 286.556,265.749 286.400,265.990 286.400 C 266.230 286.400,266.961 285.854,267.613 285.186 C 268.266 284.519,268.800 284.099,268.800 284.254 C 268.800 284.409,269.539 283.740,270.441 282.768 C 271.344 281.796,271.964 281.225,271.818 281.500 C 271.213 282.641,272.272 281.879,273.129 280.557 C 273.639 279.769,274.154 279.220,274.271 279.338 C 274.569 279.635,275.558 278.669,275.334 278.300 C 275.235 278.135,275.433 278.000,275.776 278.000 C 276.119 278.000,276.400 277.730,276.400 277.400 C 276.400 277.070,276.676 276.800,277.013 276.800 C 277.349 276.800,277.729 276.530,277.855 276.200 C 277.982 275.870,278.273 275.600,278.501 275.600 C 278.950 275.600,283.012 271.931,282.930 271.600 C 282.902 271.490,283.042 271.445,283.240 271.500 C 283.438 271.555,283.555 271.375,283.500 271.100 C 283.445 270.825,283.625 270.645,283.900 270.700 C 284.175 270.755,284.400 270.500,284.400 270.133 C 284.400 269.767,284.505 269.572,284.633 269.700 C 284.762 269.828,285.212 269.588,285.633 269.167 C 286.055 268.745,286.400 268.190,286.400 267.933 C 286.400 267.677,286.502 267.569,286.627 267.693 C 286.881 267.947,291.785 263.124,292.956 261.469 C 293.372 260.881,293.967 260.400,294.280 260.400 C 294.592 260.400,294.736 260.220,294.600 260.000 C 294.464 259.780,294.546 259.600,294.782 259.600 C 295.263 259.600,302.344 252.561,303.063 251.368 C 303.317 250.946,303.722 250.645,303.963 250.700 C 304.203 250.755,304.355 250.575,304.300 250.300 C 304.245 250.025,304.425 249.845,304.700 249.900 C 304.975 249.955,305.155 249.803,305.100 249.563 C 305.045 249.322,305.352 248.917,305.783 248.663 C 306.709 248.116,307.600 247.334,307.600 247.069 C 307.600 246.510,310.698 243.851,311.251 243.935 C 311.884 244.031,312.629 242.896,312.209 242.476 C 312.094 242.361,312.000 242.477,312.000 242.733 C 312.000 242.990,311.730 243.200,311.400 243.200 C 310.854 243.200,310.595 242.252,310.770 240.900 C 310.806 240.625,310.654 240.400,310.432 240.400 C 310.210 240.400,309.824 240.018,309.574 239.552 C 309.206 238.864,309.222 238.766,309.660 239.035 C 309.957 239.218,309.530 238.584,308.712 237.626 C 307.894 236.668,307.319 235.730,307.436 235.542 C 307.552 235.354,307.457 235.200,307.224 235.200 C 306.991 235.200,306.800 234.919,306.800 234.576 C 306.800 234.233,306.633 234.056,306.428 234.183 C 306.224 234.309,305.831 233.789,305.555 233.028 C 305.280 232.266,304.907 231.734,304.727 231.845 C 304.547 231.956,304.400 231.697,304.400 231.270 C 304.400 230.842,303.944 230.193,303.387 229.828 C 302.830 229.463,302.481 228.993,302.611 228.782 C 302.741 228.572,302.586 228.400,302.266 228.400 C 301.754 228.400,301.134 227.548,301.035 226.708 C 301.016 226.547,300.592 226.130,300.093 225.780 C 299.595 225.431,299.290 224.978,299.417 224.773 C 299.544 224.568,299.412 224.394,299.124 224.387 C 298.836 224.381,298.254 223.901,297.832 223.322 C 297.334 222.640,297.264 222.372,297.632 222.562 C 297.944 222.723,297.495 222.213,296.633 221.427 C 295.772 220.642,295.194 220.000,295.349 220.000 C 295.504 220.000,295.399 219.749,295.116 219.442 C 294.832 219.135,294.465 218.966,294.300 219.066 C 294.135 219.165,294.000 219.084,294.000 218.885 C 294.000 218.685,293.640 218.107,293.200 217.600 C 292.760 217.093,292.400 216.819,292.400 216.993 C 292.400 217.166,292.001 216.789,291.514 216.154 C 290.216 214.465,288.355 212.638,287.103 211.825 C 286.500 211.433,286.063 210.997,286.131 210.856 C 286.199 210.715,285.387 209.753,284.327 208.717 C 283.267 207.682,282.400 206.917,282.400 207.017 C 282.400 207.202,281.760 206.689,279.827 204.955 C 279.242 204.430,278.592 204.000,278.382 204.000 C 278.172 204.000,278.000 203.768,278.000 203.485 C 278.000 203.202,277.617 202.941,277.148 202.906 C 276.680 202.871,275.903 202.472,275.422 202.021 C 274.942 201.569,274.260 201.200,273.908 201.200 C 273.555 201.200,273.205 201.016,273.130 200.791 C 273.056 200.567,272.328 200.358,271.513 200.327 C 270.699 200.297,270.114 200.140,270.213 199.979 C 270.460 199.580,266.703 199.765,266.022 200.186 C 265.621 200.434,265.566 200.375,265.815 199.962 C 266.091 199.503,266.042 199.490,265.545 199.892 C 265.211 200.163,264.591 200.450,264.169 200.531 C 262.666 200.818,261.275 201.561,260.160 202.673 C 259.539 203.293,258.883 203.753,258.704 203.696 C 258.525 203.639,258.257 203.906,258.110 204.290 C 257.963 204.674,254.870 207.960,251.236 211.594 C 247.602 215.227,244.792 217.930,244.992 217.600 C 245.302 217.086,245.259 217.077,244.690 217.538 C 244.324 217.834,244.065 218.284,244.113 218.538 C 244.161 218.792,243.905 218.952,243.546 218.893 C 243.001 218.804,242.550 219.350,242.301 220.400 C 242.232 220.691,240.520 222.000,240.208 222.000 C 240.062 222.000,239.673 222.270,239.343 222.600 C 239.013 222.930,238.874 223.200,239.033 223.200 C 239.193 223.200,238.997 223.561,238.598 224.002 C 238.198 224.444,237.789 224.722,237.688 224.621 C 237.416 224.349,236.400 225.466,236.400 226.038 C 236.400 226.310,236.286 226.419,236.146 226.279 C 236.006 226.139,234.926 227.054,233.746 228.312 C 232.566 229.570,231.595 230.419,231.588 230.199 C 231.581 229.980,231.390 230.119,231.163 230.508 C 230.936 230.898,230.590 231.117,230.393 230.996 C 229.930 230.710,230.374 229.534,231.175 228.924 C 231.684 228.537,231.710 228.302,231.318 227.658 C 230.934 227.029,230.946 226.776,231.378 226.418 C 231.720 226.135,231.866 225.395,231.772 224.423 C 231.674 223.401,231.822 222.713,232.212 222.390 C 232.842 221.867,233.038 221.006,232.443 221.373 C 232.247 221.494,232.269 220.875,232.492 219.997 C 232.715 219.119,233.039 218.400,233.211 218.400 C 233.384 218.400,233.436 217.995,233.328 217.500 C 233.169 216.777,233.215 216.718,233.559 217.200 C 233.933 217.723,233.989 217.714,233.994 217.133 C 233.997 216.767,233.775 216.372,233.500 216.257 C 233.142 216.106,233.199 215.921,233.700 215.603 C 234.085 215.360,234.400 214.889,234.400 214.557 C 234.400 214.224,234.220 214.064,234.000 214.200 C 233.780 214.336,233.600 214.182,233.600 213.857 C 233.600 213.532,233.824 213.192,234.098 213.101 C 234.372 213.009,234.615 212.679,234.637 212.367 C 234.660 212.055,234.706 211.384,234.739 210.876 C 234.773 210.368,234.980 210.064,235.200 210.200 C 235.420 210.336,235.600 210.091,235.600 209.656 C 235.600 209.221,235.721 208.551,235.868 208.167 C 236.051 207.691,235.987 207.561,235.668 207.758 C 235.094 208.113,235.060 207.409,235.603 206.395 C 235.824 205.981,236.045 205.159,236.094 204.567 C 236.143 203.976,236.502 203.293,236.892 203.050 C 237.281 202.807,237.587 202.246,237.572 201.804 C 237.544 201.002,237.543 201.002,237.200 201.800 C 236.812 202.704,236.668 202.009,237.042 201.035 C 237.175 200.688,237.490 200.520,237.742 200.661 C 238.068 200.843,238.065 200.771,237.731 200.410 C 237.232 199.869,237.465 198.669,238.005 199.003 C 238.181 199.112,238.224 198.813,238.100 198.338 C 237.952 197.772,238.025 197.568,238.312 197.746 C 238.602 197.925,238.686 197.664,238.561 196.976 C 238.423 196.211,238.508 196.013,238.886 196.227 C 239.283 196.451,239.293 196.402,238.931 196.010 C 238.414 195.450,238.674 194.275,239.237 194.623 C 239.432 194.743,239.484 194.562,239.353 194.221 C 239.221 193.878,239.324 193.600,239.581 193.600 C 239.837 193.600,239.935 193.418,239.798 193.196 C 239.441 192.620,239.982 191.142,240.445 191.428 C 240.682 191.574,240.726 191.243,240.558 190.574 C 240.352 189.752,240.408 189.558,240.785 189.790 C 241.146 190.014,241.216 189.879,241.034 189.306 C 240.715 188.301,241.148 187.121,241.710 187.468 C 241.983 187.637,242.037 187.474,241.860 187.012 C 241.452 185.948,241.998 183.371,242.486 184.060 C 242.747 184.430,242.799 184.201,242.651 183.336 C 242.494 182.417,242.605 182.007,243.059 181.833 C 243.411 181.698,243.583 181.334,243.454 180.997 C 243.163 180.237,243.571 179.135,244.037 179.423 C 244.232 179.543,244.272 179.333,244.127 178.955 C 243.959 178.517,244.020 178.365,244.295 178.535 C 244.573 178.707,244.646 178.497,244.500 177.938 C 244.346 177.351,244.421 177.166,244.732 177.358 C 245.039 177.548,245.104 177.414,244.927 176.955 C 244.739 176.465,244.809 176.358,245.172 176.583 C 245.579 176.834,245.583 176.716,245.193 175.988 C 244.777 175.209,244.797 175.113,245.333 175.319 C 245.788 175.494,245.892 175.383,245.712 174.914 C 245.563 174.526,245.628 174.370,245.874 174.522 C 246.128 174.679,246.228 174.360,246.137 173.688 C 246.009 172.751,246.041 172.711,246.366 173.400 C 246.574 173.840,246.756 173.990,246.772 173.733 C 246.787 173.476,246.921 172.951,247.068 172.567 C 247.251 172.091,247.187 171.961,246.868 172.158 C 246.178 172.584,246.295 171.793,247.247 169.580 C 247.736 168.444,248.272 167.721,248.515 167.871 C 248.776 168.033,248.839 167.879,248.681 167.466 C 248.540 167.100,248.580 166.800,248.770 166.800 C 248.959 166.800,249.222 166.521,249.353 166.179 C 249.484 165.838,249.429 165.659,249.231 165.781 C 248.781 166.059,248.919 164.937,249.386 164.512 C 249.574 164.340,249.599 164.425,249.441 164.700 C 249.282 164.975,249.315 165.200,249.512 165.200 C 250.084 165.200,250.943 163.048,250.438 162.879 C 249.912 162.704,251.024 160.400,251.634 160.400 C 251.861 160.400,251.936 160.220,251.800 160.000 C 251.664 159.780,251.756 159.600,252.003 159.600 C 252.281 159.600,252.350 159.273,252.184 158.750 C 252.003 158.178,252.059 157.989,252.357 158.174 C 252.810 158.453,252.953 157.977,252.814 156.656 C 252.758 156.134,252.893 156.008,253.267 156.233 C 253.637 156.456,253.616 156.324,253.200 155.802 C 252.654 155.118,252.665 155.074,253.321 155.321 C 253.724 155.472,253.941 155.429,253.814 155.223 C 253.689 155.021,253.773 154.740,254.000 154.600 C 254.227 154.460,254.309 154.177,254.183 153.972 C 254.056 153.768,254.173 153.600,254.443 153.600 C 254.713 153.600,254.815 153.482,254.670 153.337 C 254.525 153.192,254.626 152.810,254.893 152.488 C 255.160 152.166,255.394 151.340,255.412 150.652 C 255.437 149.736,255.626 149.415,256.119 149.455 C 256.489 149.485,256.698 149.358,256.583 149.173 C 256.185 148.528,256.879 146.745,257.445 146.962 C 257.745 147.077,257.971 147.043,257.948 146.886 C 257.834 146.120,258.037 145.576,258.363 145.777 C 258.562 145.900,258.634 145.651,258.522 145.223 C 258.392 144.724,258.695 144.069,259.367 143.397 C 259.944 142.820,260.318 142.191,260.199 141.999 C 260.080 141.806,260.302 141.464,260.692 141.237 C 261.081 141.010,261.237 140.819,261.038 140.812 C 260.839 140.805,261.009 140.432,261.416 139.983 C 262.137 139.186,262.136 139.172,261.378 139.410 C 260.636 139.644,260.637 139.631,261.400 139.128 C 261.840 138.837,262.200 138.330,262.200 138.000 C 262.200 137.670,262.410 137.400,262.667 137.400 C 262.923 137.400,263.283 137.236,263.467 137.036 C 263.663 136.821,263.574 136.803,263.248 136.992 C 262.871 137.210,262.755 137.136,262.881 136.756 C 262.983 136.450,263.307 136.200,263.600 136.200 C 263.893 136.200,264.207 135.930,264.297 135.600 C 264.443 135.067,264.414 135.067,264.037 135.600 C 263.659 136.133,263.613 136.133,263.619 135.600 C 263.622 135.270,263.914 134.640,264.267 134.200 L 264.908 133.400 264.653 134.200 C 264.412 134.955,264.429 134.960,264.957 134.281 C 265.264 133.886,265.431 133.241,265.328 132.847 C 265.207 132.382,265.514 131.886,266.202 131.436 C 266.846 131.014,267.174 130.510,267.038 130.155 C 266.915 129.833,267.079 129.468,267.404 129.343 C 267.729 129.218,267.889 128.944,267.759 128.733 C 267.628 128.522,267.837 128.001,268.223 127.575 C 268.608 127.149,268.771 126.800,268.584 126.800 C 268.396 126.800,268.828 126.197,269.542 125.460 C 270.256 124.723,270.870 123.733,270.905 123.260 C 270.941 122.787,271.123 122.400,271.309 122.400 C 271.495 122.400,271.548 122.239,271.426 122.042 C 271.304 121.845,271.478 121.579,271.812 121.451 C 272.207 121.299,272.356 120.870,272.238 120.221 C 272.105 119.487,272.340 119.003,273.129 118.383 C 273.718 117.920,273.930 117.657,273.600 117.800 C 273.067 118.031,273.067 118.000,273.600 117.530 C 273.930 117.238,274.238 116.476,274.284 115.836 C 274.330 115.196,274.582 114.476,274.843 114.236 C 275.198 113.910,275.236 113.951,274.995 114.400 C 274.817 114.730,274.825 114.860,275.013 114.690 C 275.200 114.519,275.410 113.979,275.478 113.490 C 275.649 112.259,276.456 110.787,276.831 111.019 C 277.143 111.212,277.828 109.663,277.679 109.100 C 277.636 108.935,277.791 108.800,278.024 108.800 C 278.257 108.800,278.333 108.616,278.194 108.390 C 277.661 107.528,278.446 105.604,279.432 105.356 C 280.398 105.114,280.814 104.000,279.938 104.000 C 279.662 104.000,279.742 103.706,280.138 103.269 C 280.502 102.866,280.800 102.307,280.800 102.026 C 280.800 101.736,281.060 101.614,281.400 101.745 C 282.120 102.021,282.186 101.546,281.520 100.880 C 281.065 100.425,281.460 100.202,282.472 100.343 C 282.621 100.364,282.661 99.926,282.560 99.370 C 282.415 98.571,282.526 98.385,283.089 98.480 C 283.590 98.565,283.763 98.382,283.673 97.860 C 283.604 97.453,283.708 97.219,283.905 97.341 C 284.102 97.463,284.228 97.166,284.184 96.681 C 284.090 95.642,285.521 93.908,286.158 94.289 C 286.428 94.451,286.413 94.323,286.120 93.960 C 285.732 93.480,285.808 93.263,286.520 92.819 C 287.355 92.300,287.369 92.311,286.800 93.036 C 286.250 93.736,286.256 93.756,286.876 93.271 C 287.263 92.968,287.448 92.469,287.308 92.105 C 287.156 91.708,287.226 91.569,287.495 91.735 C 287.769 91.904,287.849 91.710,287.716 91.201 C 287.594 90.735,287.704 90.400,287.977 90.400 C 288.236 90.400,288.319 90.608,288.162 90.862 C 287.994 91.133,288.051 91.216,288.301 91.061 C 288.534 90.917,288.639 90.472,288.535 90.072 C 288.429 89.668,288.658 89.090,289.049 88.772 C 289.665 88.272,289.709 88.275,289.400 88.800 C 289.095 89.318,289.139 89.325,289.723 88.851 C 290.456 88.257,290.651 87.798,290.000 88.200 C 289.150 88.726,289.655 87.510,290.700 86.515 C 291.305 85.940,291.577 85.598,291.305 85.755 C 290.934 85.969,290.900 85.811,291.167 85.120 C 291.363 84.614,291.765 84.260,292.062 84.333 C 292.358 84.407,292.468 84.334,292.306 84.173 C 292.145 84.011,292.325 83.636,292.706 83.339 C 293.363 82.827,293.363 82.811,292.700 83.042 C 292.315 83.176,292.000 83.163,292.000 83.014 C 292.000 82.551,293.126 81.590,293.302 81.904 C 293.394 82.067,293.406 81.955,293.330 81.655 C 293.150 80.951,294.762 78.330,295.207 78.604 C 295.393 78.719,295.675 78.602,295.834 78.345 C 296.028 78.031,295.949 77.984,295.594 78.204 C 295.204 78.445,295.135 78.347,295.332 77.833 C 295.479 77.449,295.600 77.059,295.600 76.967 C 295.600 76.875,295.864 76.800,296.187 76.800 C 296.568 76.800,296.686 76.569,296.522 76.142 C 296.368 75.739,296.558 75.274,297.011 74.942 C 297.419 74.644,297.544 74.400,297.289 74.400 C 297.030 74.400,296.933 74.120,297.068 73.766 C 297.265 73.253,297.381 73.234,297.682 73.666 C 297.928 74.021,297.961 73.865,297.780 73.200 C 297.484 72.111,297.480 72.080,297.559 71.200 C 297.606 70.667,297.655 70.667,298.000 71.200 C 298.340 71.726,298.389 71.722,298.394 71.167 C 298.397 70.818,298.275 70.409,298.123 70.256 C 297.669 69.802,297.558 68.327,297.999 68.599 C 298.228 68.741,298.400 68.398,298.400 67.800 C 298.400 67.224,298.239 66.852,298.042 66.974 C 297.845 67.096,297.583 66.932,297.459 66.611 C 297.336 66.289,297.407 65.919,297.617 65.789 C 297.828 65.659,297.997 65.338,297.994 65.076 C 297.990 64.785,297.827 64.833,297.572 65.200 C 297.229 65.696,297.179 65.662,297.283 65.005 C 297.352 64.567,297.071 63.871,296.657 63.457 C 296.044 62.844,296.006 62.642,296.453 62.359 C 296.885 62.085,296.890 62.011,296.476 62.006 C 296.188 62.003,296.067 61.816,296.206 61.590 C 296.345 61.365,296.221 61.230,295.930 61.290 C 295.621 61.354,295.448 61.111,295.516 60.706 C 295.597 60.224,295.444 60.085,295.016 60.249 C 294.677 60.379,294.400 60.329,294.400 60.139 C 294.400 59.948,293.948 59.304,293.396 58.709 C 292.843 58.113,292.438 57.485,292.496 57.313 C 292.553 57.141,292.420 56.937,292.200 56.861 C 291.115 56.482,290.400 55.924,290.595 55.608 C 290.715 55.414,290.602 55.125,290.345 54.966 C 290.035 54.775,289.984 54.851,290.194 55.190 C 290.407 55.535,290.328 55.637,289.956 55.502 C 289.650 55.391,289.443 55.104,289.495 54.864 C 289.548 54.625,289.315 54.534,288.979 54.663 C 288.591 54.812,288.410 54.697,288.484 54.349 C 288.554 54.018,288.322 53.847,287.900 53.918 C 287.515 53.982,287.200 53.837,287.200 53.594 C 287.200 53.351,287.036 53.254,286.836 53.378 C 286.319 53.697,285.160 53.188,285.426 52.758 C 285.622 52.440,285.323 52.330,284.545 52.434 C 284.404 52.453,284.155 52.250,283.990 51.984 C 283.826 51.718,283.215 51.500,282.633 51.500 C 281.996 51.500,281.410 51.192,281.160 50.726 C 280.931 50.297,280.446 50.020,280.073 50.105 C 279.192 50.306,277.106 49.275,277.408 48.788 C 277.536 48.579,277.360 48.517,277.016 48.649 C 276.260 48.939,275.105 48.077,275.466 47.493 C 275.614 47.254,275.531 47.196,275.270 47.357 C 274.713 47.701,273.096 46.893,273.389 46.417 C 273.506 46.229,273.241 46.169,272.801 46.284 C 272.244 46.430,272.000 46.297,272.000 45.847 C 272.000 45.460,271.668 45.200,271.174 45.200 C 270.059 45.200,268.722 44.449,269.010 43.985 C 269.137 43.778,268.985 43.707,268.672 43.828 C 268.359 43.948,267.810 43.753,267.452 43.394 C 267.093 43.036,266.800 42.868,266.800 43.020 C 266.800 43.173,266.558 43.097,266.263 42.852 C 265.968 42.607,265.608 42.525,265.463 42.670 C 265.318 42.815,265.200 42.713,265.200 42.443 C 265.200 42.173,265.009 42.071,264.775 42.216 C 264.541 42.360,263.959 42.146,263.482 41.739 C 262.678 41.055,262.655 41.053,263.174 41.722 C 263.698 42.397,263.666 42.413,262.680 41.964 C 262.100 41.699,261.720 41.329,261.836 41.142 C 261.952 40.954,261.867 40.800,261.647 40.800 C 261.427 40.800,261.144 40.968,261.017 41.173 C 260.883 41.389,260.328 41.306,259.693 40.975 C 259.092 40.662,258.330 40.401,258.000 40.396 C 257.582 40.390,257.543 40.297,257.869 40.089 C 258.497 39.690,246.023 39.583,245.000 39.978 " stroke="none" fill="#fc4c0c" fill-rule="evenodd"></path><path id="path1" d="" stroke="none" fill="#1004c0c" fill-rule="evenodd"></path><path id="path2" d="" stroke="none" fill="#1004c0c" fill-rule="evenodd"></path><path id="path3" d="" stroke="none" fill="#1004c0c" fill-rule="evenodd"></path><path id="path4" d="" stroke="none" fill="#1004c0c" fill-rule="evenodd"></path></g></svg>