<svg id="svg" version="1.1" xmlns="http://www.w3.org/2000/svg" xmlns:xlink="http://www.w3.org/1999/xlink" width="400" height="400" viewBox="0, 0, 400,400"><g id="svgg"><path id="path0" d="M240.600 25.600 C 240.464 25.820,239.643 26.000,238.776 26.000 C 237.909 26.000,237.200 26.180,237.200 26.400 C 237.200 26.620,236.480 26.800,235.600 26.800 C 234.720 26.800,234.000 26.980,234.000 27.200 C 234.000 27.420,233.460 27.600,232.800 27.600 C 232.140 27.600,231.600 27.780,231.600 28.000 C 231.600 28.220,231.240 28.400,230.800 28.400 C 230.360 28.400,230.000 28.580,230.000 28.800 C 230.000 29.020,229.320 29.200,228.488 29.200 C 227.435 29.200,226.802 29.443,226.400 30.000 C 226.083 30.440,225.575 30.800,225.272 30.800 C 224.969 30.800,224.217 31.340,223.600 32.000 C 222.983 32.660,222.263 33.200,222.000 33.200 C 221.737 33.200,221.017 33.740,220.400 34.400 C 219.783 35.060,219.068 35.600,218.811 35.600 C 218.207 35.600,217.200 36.607,217.200 37.211 C 217.200 37.468,216.660 38.183,216.000 38.800 C 215.340 39.417,214.800 40.137,214.800 40.400 C 214.800 40.663,214.260 41.383,213.600 42.000 C 212.940 42.617,212.400 43.333,212.400 43.592 C 212.400 43.851,211.680 44.754,210.800 45.600 C 209.920 46.446,209.200 47.349,209.200 47.608 C 209.200 47.867,208.660 48.583,208.000 49.200 C 207.340 49.817,206.800 50.569,206.800 50.872 C 206.800 51.175,206.440 51.683,206.000 52.000 C 205.560 52.317,205.200 52.897,205.200 53.288 C 205.200 53.680,205.020 54.000,204.800 54.000 C 204.580 54.000,204.400 54.320,204.400 54.712 C 204.400 55.103,204.040 55.683,203.600 56.000 C 203.160 56.317,202.800 56.857,202.800 57.200 C 202.800 57.543,202.440 58.083,202.000 58.400 C 201.560 58.717,201.200 59.225,201.200 59.528 C 201.200 59.831,200.660 60.583,200.000 61.200 C 199.340 61.817,198.800 62.609,198.800 62.960 C 198.800 63.312,198.620 63.600,198.400 63.600 C 198.180 63.600,198.000 64.140,198.000 64.800 C 198.000 65.460,197.820 66.000,197.600 66.000 C 197.380 66.000,197.200 66.320,197.200 66.712 C 197.200 67.103,196.840 67.683,196.400 68.000 C 195.960 68.317,195.600 68.897,195.600 69.288 C 195.600 69.680,195.420 70.000,195.200 70.000 C 194.980 70.000,194.800 70.540,194.800 71.200 C 194.800 71.860,194.620 72.400,194.400 72.400 C 194.180 72.400,194.000 72.688,194.000 73.040 C 194.000 73.391,193.460 74.183,192.800 74.800 C 192.140 75.417,191.600 76.209,191.600 76.560 C 191.600 76.912,191.420 77.200,191.200 77.200 C 190.980 77.200,190.800 77.740,190.800 78.400 C 190.800 79.060,190.620 79.600,190.400 79.600 C 190.180 79.600,190.000 79.960,190.000 80.400 C 190.000 80.840,189.820 81.200,189.600 81.200 C 189.380 81.200,189.200 81.560,189.200 82.000 C 189.200 82.440,189.020 82.800,188.800 82.800 C 188.580 82.800,188.400 83.160,188.400 83.600 C 188.400 84.040,188.220 84.400,188.000 84.400 C 187.780 84.400,187.600 84.760,187.600 85.200 C 187.600 85.640,187.420 86.000,187.200 86.000 C 186.980 86.000,186.800 86.500,186.800 87.112 C 186.800 87.765,186.470 88.461,186.000 88.800 C 185.560 89.117,185.200 89.697,185.200 90.088 C 185.200 90.480,185.020 90.800,184.800 90.800 C 184.580 90.800,184.400 91.340,184.400 92.000 C 184.400 92.660,184.220 93.200,184.000 93.200 C 183.780 93.200,183.600 93.560,183.600 94.000 C 183.600 94.440,183.420 94.800,183.200 94.800 C 182.980 94.800,182.800 95.340,182.800 96.000 C 182.800 96.660,182.620 97.200,182.400 97.200 C 182.180 97.200,182.000 97.740,182.000 98.400 C 182.000 99.060,181.820 99.600,181.600 99.600 C 181.380 99.600,181.200 100.100,181.200 100.712 C 181.200 101.365,180.870 102.061,180.400 102.400 C 179.930 102.739,179.600 103.435,179.600 104.088 C 179.600 104.700,179.420 105.200,179.200 105.200 C 178.980 105.200,178.800 105.920,178.800 106.800 C 178.800 107.680,178.620 108.400,178.400 108.400 C 178.180 108.400,178.000 109.120,178.000 110.000 C 178.000 110.880,177.820 111.600,177.600 111.600 C 177.380 111.600,177.200 111.960,177.200 112.400 C 177.200 112.840,177.020 113.200,176.800 113.200 C 176.580 113.200,176.400 113.740,176.400 114.400 C 176.400 115.060,176.220 115.600,176.000 115.600 C 175.780 115.600,175.600 115.960,175.600 116.400 C 175.600 116.840,175.420 117.200,175.200 117.200 C 174.980 117.200,174.800 117.740,174.800 118.400 C 174.800 119.060,174.620 119.600,174.400 119.600 C 174.180 119.600,174.000 120.140,174.000 120.800 C 174.000 121.460,173.820 122.000,173.600 122.000 C 173.380 122.000,173.200 122.540,173.200 123.200 C 173.200 123.860,173.020 124.400,172.800 124.400 C 172.580 124.400,172.400 125.120,172.400 126.000 C 172.400 126.880,172.220 127.600,172.000 127.600 C 171.780 127.600,171.600 128.100,171.600 128.712 C 171.600 129.365,171.270 130.061,170.800 130.400 C 170.330 130.739,170.000 131.435,170.000 132.088 C 170.000 132.700,169.820 133.200,169.600 133.200 C 169.380 133.200,169.200 133.920,169.200 134.800 C 169.200 135.680,169.020 136.400,168.800 136.400 C 168.580 136.400,168.400 137.120,168.400 138.000 C 168.400 138.880,168.220 139.600,168.000 139.600 C 167.780 139.600,167.600 140.320,167.600 141.200 C 167.600 142.080,167.420 142.800,167.200 142.800 C 166.980 142.800,166.800 143.340,166.800 144.000 C 166.800 144.660,166.620 145.200,166.400 145.200 C 166.180 145.200,166.000 145.920,166.000 146.800 C 166.000 147.680,165.820 148.400,165.600 148.400 C 165.380 148.400,165.200 148.940,165.200 149.600 C 165.200 150.260,165.020 150.800,164.800 150.800 C 164.580 150.800,164.400 151.340,164.400 152.000 C 164.400 152.660,164.220 153.200,164.000 153.200 C 163.780 153.200,163.600 153.920,163.600 154.800 C 163.600 155.680,163.420 156.400,163.200 156.400 C 162.980 156.400,162.800 155.860,162.800 155.200 C 162.800 154.540,162.620 154.000,162.400 154.000 C 162.180 154.000,162.000 153.680,162.000 153.288 C 162.000 152.897,161.640 152.317,161.200 152.000 C 160.760 151.683,160.400 151.187,160.400 150.898 C 160.400 150.216,157.784 147.600,157.102 147.600 C 156.813 147.600,156.317 147.240,156.000 146.800 C 155.683 146.360,155.103 146.000,154.712 146.000 C 154.320 146.000,154.000 145.820,154.000 145.600 C 154.000 145.380,153.280 145.200,152.400 145.200 C 151.520 145.200,150.800 145.020,150.800 144.800 C 150.800 144.580,150.091 144.400,149.224 144.400 C 148.357 144.400,147.536 144.220,147.400 144.000 C 147.258 143.771,145.196 143.600,142.576 143.600 C 139.792 143.600,138.000 143.757,138.000 144.000 C 138.000 144.238,136.475 144.400,134.224 144.400 C 132.137 144.400,130.337 144.579,130.200 144.800 C 130.064 145.020,128.883 145.200,127.576 145.200 C 126.259 145.200,125.200 145.378,125.200 145.600 C 125.200 145.822,124.133 146.000,122.800 146.000 C 121.467 146.000,120.400 146.178,120.400 146.400 C 120.400 146.620,119.500 146.800,118.400 146.800 C 117.300 146.800,116.400 146.980,116.400 147.200 C 116.400 147.420,115.601 147.600,114.624 147.600 C 113.647 147.600,112.736 147.780,112.600 148.000 C 112.464 148.220,111.643 148.400,110.776 148.400 C 109.909 148.400,109.200 148.580,109.200 148.800 C 109.200 149.020,108.480 149.200,107.600 149.200 C 106.720 149.200,106.000 149.380,106.000 149.600 C 106.000 149.820,105.280 150.000,104.400 150.000 C 103.520 150.000,102.800 150.180,102.800 150.400 C 102.800 150.620,102.260 150.800,101.600 150.800 C 100.940 150.800,100.400 150.980,100.400 151.200 C 100.400 151.420,99.680 151.600,98.800 151.600 C 97.920 151.600,97.200 151.780,97.200 152.000 C 97.200 152.220,96.660 152.400,96.000 152.400 C 95.340 152.400,94.800 152.580,94.800 152.800 C 94.800 153.020,94.440 153.200,94.000 153.200 C 93.560 153.200,93.200 153.380,93.200 153.600 C 93.200 153.820,92.660 154.000,92.000 154.000 C 91.340 154.000,90.800 154.180,90.800 154.400 C 90.800 154.620,90.480 154.800,90.088 154.800 C 89.697 154.800,89.117 155.160,88.800 155.600 C 88.483 156.040,87.943 156.400,87.600 156.400 C 87.257 156.400,86.717 156.760,86.400 157.200 C 86.083 157.640,85.610 158.000,85.348 158.000 C 84.686 158.000,78.000 164.630,78.000 165.287 C 78.000 165.582,77.640 166.083,77.200 166.400 C 76.760 166.717,76.400 167.297,76.400 167.688 C 76.400 168.080,76.220 168.400,76.000 168.400 C 75.780 168.400,75.600 168.760,75.600 169.200 C 75.600 169.640,75.420 170.000,75.200 170.000 C 74.980 170.000,74.800 170.684,74.800 171.520 C 74.800 172.356,74.576 173.264,74.303 173.537 C 73.594 174.246,73.591 188.551,74.300 189.260 C 74.575 189.535,74.800 190.534,74.800 191.480 C 74.800 192.426,74.980 193.200,75.200 193.200 C 75.420 193.200,75.600 193.819,75.600 194.576 C 75.600 195.333,75.780 196.064,76.000 196.200 C 76.220 196.336,76.400 196.977,76.400 197.624 C 76.400 198.271,76.580 198.800,76.800 198.800 C 77.020 198.800,77.200 199.520,77.200 200.400 C 77.200 201.280,77.380 202.000,77.600 202.000 C 77.820 202.000,78.000 202.720,78.000 203.600 C 78.000 204.480,78.180 205.200,78.400 205.200 C 78.620 205.200,78.800 205.999,78.800 206.976 C 78.800 207.953,78.980 208.864,79.200 209.000 C 79.420 209.136,79.600 209.957,79.600 210.824 C 79.600 211.691,79.780 212.400,80.000 212.400 C 80.220 212.400,80.400 213.120,80.400 214.000 C 80.400 214.880,80.580 215.600,80.800 215.600 C 81.020 215.600,81.200 216.320,81.200 217.200 C 81.200 218.080,81.380 218.800,81.600 218.800 C 81.820 218.800,82.000 219.520,82.000 220.400 C 82.000 221.280,82.180 222.000,82.400 222.000 C 82.620 222.000,82.800 222.799,82.800 223.776 C 82.800 224.753,82.980 225.664,83.200 225.800 C 83.420 225.936,83.600 226.757,83.600 227.624 C 83.600 228.491,83.780 229.200,84.000 229.200 C 84.220 229.200,84.400 229.920,84.400 230.800 C 84.400 231.680,84.580 232.400,84.800 232.400 C 85.020 232.400,85.200 233.120,85.200 234.000 C 85.200 234.880,85.380 235.600,85.600 235.600 C 85.820 235.600,86.000 236.399,86.000 237.376 C 86.000 238.353,86.180 239.264,86.400 239.400 C 86.620 239.536,86.800 240.357,86.800 241.224 C 86.800 242.091,86.980 242.800,87.200 242.800 C 87.420 242.800,87.600 243.520,87.600 244.400 C 87.600 245.280,87.780 246.000,88.000 246.000 C 88.220 246.000,88.400 246.799,88.400 247.776 C 88.400 248.753,88.580 249.664,88.800 249.800 C 89.020 249.936,89.200 250.757,89.200 251.624 C 89.200 252.491,89.380 253.200,89.600 253.200 C 89.820 253.200,90.000 253.920,90.000 254.800 C 90.000 255.680,90.180 256.400,90.400 256.400 C 90.620 256.400,90.800 257.199,90.800 258.176 C 90.800 259.153,90.980 260.064,91.200 260.200 C 91.420 260.336,91.600 261.236,91.600 262.200 C 91.600 263.164,91.780 264.064,92.000 264.200 C 92.220 264.336,92.400 265.157,92.400 266.024 C 92.400 266.891,92.580 267.600,92.800 267.600 C 93.020 267.600,93.200 268.500,93.200 269.600 C 93.200 270.700,93.380 271.600,93.600 271.600 C 93.820 271.600,94.000 272.500,94.000 273.600 C 94.000 274.700,94.180 275.600,94.400 275.600 C 94.620 275.600,94.800 276.500,94.800 277.600 C 94.800 278.700,94.980 279.600,95.200 279.600 C 95.420 279.600,95.600 280.500,95.600 281.600 C 95.600 282.700,95.780 283.600,96.000 283.600 C 96.220 283.600,96.400 284.500,96.400 285.600 C 96.400 286.700,96.580 287.600,96.800 287.600 C 97.020 287.600,97.200 288.500,97.200 289.600 C 97.200 290.700,97.380 291.600,97.600 291.600 C 97.820 291.600,98.000 292.500,98.000 293.600 C 98.000 294.700,98.180 295.600,98.400 295.600 C 98.620 295.600,98.800 296.500,98.800 297.600 C 98.800 298.700,98.980 299.600,99.200 299.600 C 99.420 299.600,99.600 300.500,99.600 301.600 C 99.600 302.700,99.780 303.600,100.000 303.600 C 100.220 303.600,100.400 304.500,100.400 305.600 C 100.400 306.700,100.580 307.600,100.800 307.600 C 101.020 307.600,101.200 308.320,101.200 309.200 C 101.200 310.080,101.380 310.800,101.600 310.800 C 101.820 310.800,102.000 311.599,102.000 312.576 C 102.000 313.553,102.180 314.464,102.400 314.600 C 102.620 314.736,102.800 315.737,102.800 316.824 C 102.800 317.911,102.980 318.800,103.200 318.800 C 103.433 318.800,103.600 320.133,103.600 322.000 C 103.600 323.867,103.767 325.200,104.000 325.200 C 104.222 325.200,104.400 326.267,104.400 327.600 C 104.400 328.933,104.578 330.000,104.800 330.000 C 105.020 330.000,105.200 330.720,105.200 331.600 C 105.200 332.480,105.380 333.200,105.600 333.200 C 105.820 333.200,106.000 334.100,106.000 335.200 C 106.000 336.300,106.180 337.200,106.400 337.200 C 106.620 337.200,106.800 337.819,106.800 338.576 C 106.800 339.333,106.980 340.064,107.200 340.200 C 107.420 340.336,107.600 340.977,107.600 341.624 C 107.600 342.271,107.780 342.800,108.000 342.800 C 108.220 342.800,108.400 343.088,108.400 343.440 C 108.400 343.791,108.940 344.583,109.600 345.200 C 110.260 345.817,110.800 346.537,110.800 346.800 C 110.800 347.063,111.340 347.783,112.000 348.400 C 112.660 349.017,113.200 349.732,113.200 349.989 C 113.200 350.593,114.207 351.600,114.811 351.600 C 115.068 351.600,115.783 352.140,116.400 352.800 C 117.017 353.460,117.737 354.000,118.000 354.000 C 118.263 354.000,118.983 354.540,119.600 355.200 C 120.217 355.860,121.009 356.400,121.360 356.400 C 121.712 356.400,122.000 356.580,122.000 356.800 C 122.000 357.020,122.360 357.200,122.800 357.200 C 123.240 357.200,123.600 357.380,123.600 357.600 C 123.600 357.820,123.960 358.000,124.400 358.000 C 124.840 358.000,125.200 358.180,125.200 358.400 C 125.200 358.620,125.560 358.800,126.000 358.800 C 126.440 358.800,126.800 358.980,126.800 359.200 C 126.800 359.420,127.340 359.600,128.000 359.600 C 128.660 359.600,129.200 359.780,129.200 360.000 C 129.200 360.220,129.560 360.400,130.000 360.400 C 130.440 360.400,130.800 360.580,130.800 360.800 C 130.800 361.020,131.340 361.200,132.000 361.200 C 132.660 361.200,133.200 361.380,133.200 361.600 C 133.200 361.820,133.740 362.000,134.400 362.000 C 135.060 362.000,135.600 362.180,135.600 362.400 C 135.600 362.620,136.140 362.800,136.800 362.800 C 137.460 362.800,138.000 362.980,138.000 363.200 C 138.000 363.420,138.360 363.600,138.800 363.600 C 139.240 363.600,139.600 363.780,139.600 364.000 C 139.600 364.220,140.140 364.400,140.800 364.400 C 141.460 364.400,142.000 364.580,142.000 364.800 C 142.000 365.020,142.540 365.200,143.200 365.200 C 143.860 365.200,144.400 365.380,144.400 365.600 C 144.400 365.820,144.940 366.000,145.600 366.000 C 146.260 366.000,146.800 366.180,146.800 366.400 C 146.800 366.620,147.340 366.800,148.000 366.800 C 148.660 366.800,149.200 366.980,149.200 367.200 C 149.200 367.420,149.740 367.600,150.400 367.600 C 151.060 367.600,151.600 367.780,151.600 368.000 C 151.600 368.220,152.140 368.400,152.800 368.400 C 153.460 368.400,154.000 368.580,154.000 368.800 C 154.000 369.020,154.720 369.200,155.600 369.200 C 156.480 369.200,157.200 369.380,157.200 369.600 C 157.200 369.820,157.740 370.000,158.400 370.000 C 159.060 370.000,159.600 370.180,159.600 370.400 C 159.600 370.620,160.320 370.800,161.200 370.800 C 162.080 370.800,162.800 370.980,162.800 371.200 C 162.800 371.420,163.419 371.600,164.176 371.600 C 164.933 371.600,165.664 371.780,165.800 372.000 C 165.936 372.220,166.537 372.400,167.135 372.400 C 167.765 372.400,168.467 372.737,168.800 373.200 C 169.202 373.757,169.835 374.000,170.888 374.000 C 171.720 374.000,172.400 374.180,172.400 374.400 C 172.400 374.620,173.109 374.800,173.976 374.800 C 174.843 374.800,175.664 374.980,175.800 375.200 C 175.946 375.437,178.404 375.600,181.824 375.600 C 185.408 375.600,187.600 375.448,187.600 375.200 C 187.600 374.980,188.320 374.800,189.200 374.800 C 190.080 374.800,190.800 374.620,190.800 374.400 C 190.800 374.180,191.448 374.000,192.240 374.000 C 193.323 374.000,193.956 373.703,194.800 372.800 C 195.417 372.140,196.132 371.600,196.389 371.600 C 197.060 371.600,198.000 370.566,198.000 369.829 C 198.000 369.483,198.280 369.200,198.622 369.200 C 198.964 369.200,200.304 368.120,201.600 366.800 C 202.896 365.480,204.154 364.400,204.397 364.400 C 204.640 364.400,206.081 363.140,207.600 361.600 C 209.119 360.060,210.557 358.800,210.796 358.800 C 211.035 358.800,212.837 357.180,214.800 355.200 C 216.763 353.220,218.561 351.600,218.795 351.600 C 219.029 351.600,221.731 349.080,224.800 346.000 C 227.869 342.920,230.561 340.400,230.783 340.400 C 231.306 340.400,247.600 324.111,247.600 323.588 C 247.600 323.054,255.075 315.600,255.610 315.600 C 255.842 315.600,257.637 313.980,259.600 312.000 C 261.563 310.020,263.365 308.400,263.604 308.400 C 263.843 308.400,265.281 307.140,266.800 305.600 C 268.319 304.060,269.758 302.800,269.998 302.800 C 270.238 302.800,271.859 301.360,273.600 299.600 C 275.341 297.840,276.962 296.400,277.202 296.400 C 277.442 296.400,278.881 295.140,280.400 293.600 C 281.919 292.060,283.357 290.800,283.596 290.800 C 283.835 290.800,285.637 289.180,287.600 287.200 C 289.563 285.220,291.358 283.600,291.589 283.600 C 291.820 283.600,298.305 277.300,306.000 269.600 C 313.695 261.900,320.179 255.600,320.409 255.600 C 321.011 255.600,323.600 252.924,323.600 252.302 C 323.600 252.013,323.960 251.517,324.400 251.200 C 324.957 250.798,325.200 250.165,325.200 249.112 C 325.200 248.280,325.380 247.600,325.600 247.600 C 325.820 247.600,326.000 246.880,326.000 246.000 C 326.000 245.120,326.180 244.400,326.400 244.400 C 326.620 244.400,326.800 243.680,326.800 242.800 C 326.800 241.920,326.620 241.200,326.400 241.200 C 326.180 241.200,326.000 240.480,326.000 239.600 C 326.000 238.720,325.820 238.000,325.600 238.000 C 325.380 238.000,325.200 237.346,325.200 236.547 C 325.200 235.673,324.920 234.836,324.497 234.447 C 324.111 234.091,323.540 233.305,323.230 232.700 C 322.919 232.095,322.515 231.600,322.332 231.600 C 322.150 231.600,322.000 231.280,322.000 230.888 C 322.000 230.497,321.640 229.917,321.200 229.600 C 320.760 229.283,320.400 228.775,320.400 228.472 C 320.400 228.169,319.860 227.417,319.200 226.800 C 318.540 226.183,318.000 225.431,318.000 225.128 C 318.000 224.825,317.640 224.317,317.200 224.000 C 316.760 223.683,316.400 223.175,316.400 222.872 C 316.400 222.569,315.860 221.817,315.200 221.200 C 314.540 220.583,314.000 219.867,314.000 219.608 C 314.000 219.349,313.280 218.446,312.400 217.600 C 311.520 216.754,310.800 215.857,310.800 215.605 C 310.800 215.354,309.900 214.271,308.800 213.200 C 307.700 212.129,306.800 211.059,306.800 210.823 C 306.800 210.255,291.332 194.800,290.763 194.800 C 290.520 194.800,289.817 194.260,289.200 193.600 C 288.583 192.940,287.863 192.400,287.600 192.400 C 287.337 192.400,286.617 191.860,286.000 191.200 C 285.383 190.540,284.591 190.000,284.240 190.000 C 283.888 190.000,283.600 189.820,283.600 189.600 C 283.600 189.380,283.240 189.200,282.800 189.200 C 282.360 189.200,282.000 189.020,282.000 188.800 C 282.000 188.580,281.640 188.400,281.200 188.400 C 280.760 188.400,280.400 188.220,280.400 188.000 C 280.400 187.780,279.860 187.600,279.200 187.600 C 278.540 187.600,278.000 187.420,278.000 187.200 C 278.000 186.980,277.280 186.800,276.400 186.800 C 275.520 186.800,274.800 186.620,274.800 186.400 C 274.800 186.180,274.080 186.000,273.200 186.000 C 272.320 186.000,271.600 185.820,271.600 185.600 C 271.600 185.363,270.133 185.200,268.000 185.200 C 265.867 185.200,264.400 185.363,264.400 185.600 C 264.400 185.820,263.680 186.000,262.800 186.000 C 261.920 186.000,261.200 186.180,261.200 186.400 C 261.200 186.620,260.495 186.800,259.633 186.800 C 258.742 186.800,257.990 187.016,257.888 187.300 C 257.784 187.591,257.561 187.652,257.355 187.445 C 257.148 187.239,257.209 187.016,257.500 186.912 C 257.775 186.814,258.000 186.388,258.000 185.967 C 258.000 185.545,258.180 185.200,258.400 185.200 C 258.620 185.200,258.800 184.660,258.800 184.000 C 258.800 183.340,258.980 182.800,259.200 182.800 C 259.420 182.800,259.600 182.260,259.600 181.600 C 259.600 180.940,259.780 180.400,260.000 180.400 C 260.220 180.400,260.400 179.860,260.400 179.200 C 260.400 178.540,260.580 178.000,260.800 178.000 C 261.020 178.000,261.200 177.640,261.200 177.200 C 261.200 176.760,261.380 176.400,261.600 176.400 C 261.820 176.400,262.000 175.860,262.000 175.200 C 262.000 174.540,262.180 174.000,262.400 174.000 C 262.620 174.000,262.800 173.640,262.800 173.200 C 262.800 172.760,262.980 172.400,263.200 172.400 C 263.420 172.400,263.600 171.860,263.600 171.200 C 263.600 170.540,263.780 170.000,264.000 170.000 C 264.220 170.000,264.400 169.640,264.400 169.200 C 264.400 168.760,264.580 168.400,264.800 168.400 C 265.020 168.400,265.200 167.860,265.200 167.200 C 265.200 166.540,265.380 166.000,265.600 166.000 C 265.820 166.000,266.000 165.460,266.000 164.800 C 266.000 164.140,266.180 163.600,266.400 163.600 C 266.620 163.600,266.800 163.240,266.800 162.800 C 266.800 162.360,266.980 162.000,267.200 162.000 C 267.420 162.000,267.600 161.680,267.600 161.288 C 267.600 160.897,267.960 160.317,268.400 160.000 C 268.870 159.661,269.200 158.965,269.200 158.312 C 269.200 157.700,269.380 157.200,269.600 157.200 C 269.820 157.200,270.000 156.840,270.000 156.400 C 270.000 155.960,270.180 155.600,270.400 155.600 C 270.620 155.600,270.800 155.280,270.800 154.888 C 270.800 154.497,271.160 153.917,271.600 153.600 C 272.040 153.283,272.400 152.703,272.400 152.312 C 272.400 151.920,272.580 151.600,272.800 151.600 C 273.020 151.600,273.200 151.060,273.200 150.400 C 273.200 149.740,273.380 149.200,273.600 149.200 C 273.820 149.200,274.000 148.880,274.000 148.488 C 274.000 148.097,274.360 147.517,274.800 147.200 C 275.240 146.883,275.600 146.343,275.600 146.000 C 275.600 145.657,275.960 145.117,276.400 144.800 C 276.840 144.483,277.200 143.903,277.200 143.512 C 277.200 143.120,277.380 142.800,277.600 142.800 C 277.820 142.800,278.000 142.440,278.000 142.000 C 278.000 141.560,278.180 141.200,278.400 141.200 C 278.620 141.200,278.800 140.880,278.800 140.488 C 278.800 140.097,279.160 139.517,279.600 139.200 C 280.040 138.883,280.400 138.303,280.400 137.912 C 280.400 137.520,280.580 137.200,280.800 137.200 C 281.020 137.200,281.200 136.660,281.200 136.000 C 281.200 135.340,281.380 134.800,281.600 134.800 C 281.820 134.800,282.000 134.512,282.000 134.160 C 282.000 133.809,282.540 133.017,283.200 132.400 C 283.860 131.783,284.400 130.991,284.400 130.640 C 284.400 130.288,284.580 130.000,284.800 130.000 C 285.020 130.000,285.200 129.500,285.200 128.888 C 285.200 128.235,285.530 127.539,286.000 127.200 C 286.440 126.883,286.800 126.303,286.800 125.912 C 286.800 125.520,286.980 125.200,287.200 125.200 C 287.420 125.200,287.600 124.660,287.600 124.000 C 287.600 123.340,287.780 122.800,288.000 122.800 C 288.220 122.800,288.400 122.300,288.400 121.688 C 288.400 121.035,288.730 120.339,289.200 120.000 C 289.640 119.683,290.000 119.143,290.000 118.800 C 290.000 118.457,290.360 117.917,290.800 117.600 C 291.241 117.282,291.600 116.565,291.600 116.000 C 291.600 115.435,291.959 114.718,292.400 114.400 C 292.841 114.082,293.200 113.365,293.200 112.800 C 293.200 112.235,293.559 111.518,294.000 111.200 C 294.470 110.861,294.800 110.165,294.800 109.512 C 294.800 108.900,294.980 108.400,295.200 108.400 C 295.420 108.400,295.600 108.080,295.600 107.688 C 295.600 107.297,295.960 106.717,296.400 106.400 C 296.840 106.083,297.200 105.575,297.200 105.272 C 297.200 104.969,297.740 104.217,298.400 103.600 C 299.060 102.983,299.600 102.231,299.600 101.928 C 299.600 101.625,299.960 101.117,300.400 100.800 C 300.841 100.482,301.200 99.765,301.200 99.200 C 301.200 98.635,301.559 97.918,302.000 97.600 C 302.440 97.283,302.800 96.703,302.800 96.312 C 302.800 95.920,302.980 95.600,303.200 95.600 C 303.420 95.600,303.600 95.280,303.600 94.888 C 303.600 94.497,303.960 93.917,304.400 93.600 C 304.840 93.283,305.200 92.703,305.200 92.312 C 305.200 91.920,305.380 91.600,305.600 91.600 C 305.820 91.600,306.000 91.240,306.000 90.800 C 306.000 90.360,306.180 90.000,306.400 90.000 C 306.620 90.000,306.800 89.680,306.800 89.288 C 306.800 88.897,307.160 88.317,307.600 88.000 C 308.040 87.683,308.400 87.103,308.400 86.712 C 308.400 86.320,308.580 86.000,308.800 86.000 C 309.020 86.000,309.200 85.640,309.200 85.200 C 309.200 84.760,309.380 84.400,309.600 84.400 C 309.820 84.400,310.000 84.040,310.000 83.600 C 310.000 83.160,310.180 82.800,310.400 82.800 C 310.620 82.800,310.800 82.080,310.800 81.200 C 310.800 80.320,310.980 79.600,311.200 79.600 C 311.420 79.600,311.600 79.060,311.600 78.400 C 311.600 77.740,311.780 77.200,312.000 77.200 C 312.220 77.200,312.400 76.480,312.400 75.600 C 312.400 74.720,312.580 74.000,312.800 74.000 C 313.020 74.000,313.200 73.291,313.200 72.424 C 313.200 71.557,313.380 70.736,313.600 70.600 C 313.820 70.464,314.000 69.834,314.000 69.200 C 314.000 68.566,313.820 67.936,313.600 67.800 C 313.380 67.664,313.200 66.843,313.200 65.976 C 313.200 65.109,313.020 64.400,312.800 64.400 C 312.580 64.400,312.400 63.680,312.400 62.800 C 312.400 61.920,312.220 61.200,312.000 61.200 C 311.780 61.200,311.600 60.480,311.600 59.600 C 311.600 58.720,311.420 58.000,311.200 58.000 C 310.980 58.000,310.800 57.460,310.800 56.800 C 310.800 56.140,310.620 55.600,310.400 55.600 C 310.180 55.600,310.000 55.280,310.000 54.888 C 310.000 54.497,309.640 53.917,309.200 53.600 C 308.760 53.283,308.400 52.775,308.400 52.472 C 308.400 52.169,307.860 51.417,307.200 50.800 C 306.540 50.183,306.000 49.475,306.000 49.226 C 306.000 48.637,303.363 46.000,302.774 46.000 C 302.525 46.000,301.817 45.460,301.200 44.800 C 300.583 44.140,299.863 43.600,299.600 43.600 C 299.337 43.600,298.617 43.060,298.000 42.400 C 297.383 41.740,296.591 41.200,296.240 41.200 C 295.888 41.200,295.600 41.020,295.600 40.800 C 295.600 40.580,295.240 40.400,294.800 40.400 C 294.360 40.400,294.000 40.220,294.000 40.000 C 294.000 39.780,293.640 39.600,293.200 39.600 C 292.760 39.600,292.400 39.420,292.400 39.200 C 292.400 38.980,292.080 38.800,291.688 38.800 C 291.297 38.800,290.717 38.440,290.400 38.000 C 290.061 37.530,289.365 37.200,288.712 37.200 C 288.100 37.200,287.600 37.020,287.600 36.800 C 287.600 36.580,287.240 36.400,286.800 36.400 C 286.360 36.400,286.000 36.220,286.000 36.000 C 286.000 35.780,285.712 35.600,285.360 35.600 C 285.009 35.600,284.217 35.060,283.600 34.400 C 282.983 33.740,282.191 33.200,281.840 33.200 C 281.488 33.200,281.200 33.020,281.200 32.800 C 281.200 32.580,280.840 32.400,280.400 32.400 C 279.960 32.400,279.600 32.220,279.600 32.000 C 279.600 31.780,279.060 31.600,278.400 31.600 C 277.740 31.600,277.200 31.420,277.200 31.200 C 277.200 30.980,276.840 30.800,276.400 30.800 C 275.960 30.800,275.600 30.620,275.600 30.400 C 275.600 30.180,275.240 30.000,274.800 30.000 C 274.360 30.000,274.000 29.820,274.000 29.600 C 274.000 29.380,273.320 29.200,272.488 29.200 C 271.435 29.200,270.802 28.957,270.400 28.400 C 270.061 27.930,269.365 27.600,268.712 27.600 C 268.100 27.600,267.600 27.420,267.600 27.200 C 267.600 26.980,266.880 26.800,266.000 26.800 C 265.120 26.800,264.400 26.620,264.400 26.400 C 264.400 26.180,263.691 26.000,262.824 26.000 C 261.957 26.000,261.136 25.820,261.000 25.600 C 260.664 25.057,240.936 25.057,240.600 25.600 M262.521 41.881 C 265.787 43.008,269.176 44.618,273.521 47.106 C 276.974 49.083,281.510 51.450,283.600 52.366 C 296.933 58.206,301.209 68.218,294.734 78.438 C 293.981 79.627,292.859 81.577,292.241 82.771 C 290.204 86.708,289.522 87.842,285.118 94.600 C 283.019 97.821,280.019 103.421,275.581 112.400 C 272.594 118.445,269.828 123.886,269.583 124.200 C 269.412 124.420,268.646 125.770,267.882 127.200 C 267.118 128.630,265.597 131.420,264.502 133.400 C 255.450 149.778,254.942 150.822,248.854 165.600 C 246.267 171.880,242.689 181.503,242.014 184.000 C 241.627 185.430,240.575 189.030,239.678 192.000 C 237.288 199.905,235.005 208.339,233.776 213.800 C 233.182 216.440,232.449 219.680,232.149 221.000 C 230.674 227.475,230.157 231.200,230.733 231.200 C 231.185 231.200,246.410 216.780,253.630 209.514 C 263.728 199.351,267.168 198.150,274.966 202.067 C 282.895 206.049,301.201 225.614,308.711 238.135 C 311.680 243.083,312.506 241.604,299.337 254.909 C 283.816 270.591,278.843 275.189,253.398 297.380 C 249.879 300.450,241.420 308.571,234.600 315.427 C 222.573 327.517,213.473 336.252,204.797 344.031 C 194.245 353.492,188.023 358.807,186.901 359.318 C 186.406 359.544,186.000 359.970,186.000 360.264 C 186.000 361.066,177.665 361.036,177.358 360.233 C 177.232 359.907,175.842 359.385,174.070 359.000 C 165.126 357.056,140.334 348.763,132.075 344.953 C 123.109 340.817,120.454 336.657,118.829 324.200 C 117.868 316.836,117.480 314.503,116.568 310.600 C 116.053 308.400,114.006 298.500,112.018 288.600 C 106.916 263.189,106.450 260.906,105.789 258.100 C 105.465 256.725,104.930 254.430,104.600 253.000 C 104.270 251.570,103.730 249.230,103.400 247.800 C 103.070 246.370,102.530 244.030,102.200 242.600 C 100.539 235.403,99.874 232.560,96.401 217.800 C 94.198 208.437,91.072 195.756,89.944 191.600 C 85.970 176.971,89.297 170.396,103.000 165.794 C 110.004 163.442,120.337 161.198,131.450 159.614 C 135.624 159.020,144.352 158.642,146.494 158.963 C 148.807 159.310,148.293 157.951,152.963 176.063 C 153.965 179.947,155.035 183.907,155.342 184.863 C 156.036 187.021,156.536 189.088,157.600 194.200 C 158.058 196.400,158.598 198.920,158.800 199.800 C 159.002 200.680,159.540 203.200,159.996 205.400 C 160.451 207.600,160.979 210.030,161.168 210.800 C 161.358 211.570,161.831 213.775,162.219 215.700 C 163.038 219.761,163.329 219.974,164.125 217.100 C 165.172 213.324,167.714 202.642,168.003 200.800 C 168.331 198.713,170.530 188.206,171.435 184.400 C 171.775 182.970,172.295 180.720,172.590 179.400 C 173.208 176.638,173.776 174.557,175.809 167.600 C 176.613 164.850,177.431 161.970,177.627 161.200 C 177.822 160.430,178.625 157.910,179.411 155.600 C 180.197 153.290,181.466 148.970,182.232 146.000 C 182.998 143.030,184.058 139.430,184.587 138.000 C 185.117 136.570,185.825 134.500,186.160 133.400 C 186.734 131.515,191.155 118.612,194.733 108.378 C 195.622 105.835,197.005 102.325,197.806 100.578 C 198.606 98.830,200.178 95.330,201.298 92.800 C 203.246 88.396,204.201 86.484,209.385 76.600 C 216.578 62.884,228.095 47.288,233.270 44.255 C 239.029 40.880,242.685 40.034,251.000 40.154 L 257.800 40.252 262.521 41.881 " stroke="none" fill="#fcfafa" fill-rule="evenodd"></path><path id="path1" d="M245.897 41.038 C 237.917 42.245,233.664 44.340,228.826 49.447 C 225.570 52.885,216.785 65.481,213.453 71.489 C 212.382 73.420,210.922 75.990,210.209 77.200 C 205.661 84.911,197.620 102.701,194.387 112.200 C 193.339 115.280,190.994 122.120,189.176 127.400 C 184.782 140.163,184.738 140.304,182.429 148.600 C 181.327 152.560,179.773 157.780,178.976 160.200 C 177.715 164.031,175.717 171.044,173.790 178.400 C 172.705 182.543,170.368 193.398,169.570 198.000 C 169.132 200.530,168.520 203.410,168.211 204.400 C 167.902 205.390,167.354 207.730,166.994 209.600 C 166.386 212.748,164.096 221.174,163.738 221.576 C 163.087 222.308,162.053 218.507,159.010 204.200 C 157.091 195.180,154.928 185.730,154.201 183.200 C 153.475 180.670,151.974 175.090,150.866 170.800 C 149.758 166.510,148.615 162.280,148.326 161.400 L 147.800 159.800 145.200 159.600 C 134.930 158.810,108.710 163.675,98.960 168.180 C 88.076 173.209,87.103 177.184,91.978 196.687 C 96.369 214.253,105.380 252.779,108.049 265.400 C 108.933 269.580,111.250 281.010,113.197 290.800 C 115.145 300.590,117.026 309.680,117.377 311.000 C 117.728 312.320,118.384 316.100,118.835 319.400 C 121.164 336.449,122.848 339.706,131.470 343.844 C 141.477 348.647,170.056 357.984,177.958 359.032 C 179.148 359.190,180.159 359.549,180.277 359.856 C 180.559 360.592,183.840 360.593,184.123 359.857 C 184.237 359.558,184.866 359.207,185.520 359.076 C 186.816 358.817,188.800 357.224,198.800 348.418 C 209.829 338.705,220.033 329.046,232.000 316.991 C 242.835 306.076,248.228 300.999,259.600 291.007 C 277.055 275.670,283.697 269.509,296.100 257.146 C 303.745 249.525,310.000 242.993,310.000 242.629 C 310.000 237.858,286.365 210.076,277.376 204.280 C 268.165 198.342,265.199 199.173,253.051 211.098 C 238.458 225.422,230.033 233.200,229.109 233.200 C 228.658 233.200,228.803 231.941,229.780 227.400 C 230.112 225.860,230.652 223.148,230.981 221.373 C 231.797 216.968,236.356 199.263,238.750 191.200 C 241.998 180.264,242.626 178.367,244.722 173.179 C 245.828 170.441,247.939 165.140,249.413 161.400 C 252.330 153.996,255.986 146.245,259.223 140.600 C 260.358 138.620,261.658 136.280,262.111 135.400 C 262.565 134.520,264.286 131.370,265.937 128.400 C 267.588 125.430,271.841 117.240,275.389 110.200 C 278.937 103.160,282.349 96.590,282.972 95.600 C 284.307 93.479,289.008 86.257,290.032 84.754 C 290.424 84.179,291.036 83.009,291.393 82.154 C 291.750 81.299,292.848 79.225,293.833 77.544 C 299.824 67.324,296.371 59.910,282.400 52.989 C 278.990 51.300,273.770 48.596,270.800 46.980 C 261.154 41.730,253.461 39.895,245.897 41.038 " stroke="none" fill="#fc4c0c" fill-rule="evenodd"></path><path id="path2" d="M245.800 40.575 C 239.902 41.378,234.381 43.627,230.814 46.681 C 224.947 51.703,211.111 73.110,204.108 88.000 C 199.916 96.913,196.164 105.775,194.370 111.000 C 193.313 114.080,191.807 118.458,191.024 120.730 C 190.241 123.001,189.609 125.071,189.620 125.330 C 189.642 125.836,192.835 117.005,194.870 110.809 C 197.318 103.354,205.988 84.357,210.209 77.200 C 210.922 75.990,212.382 73.420,213.453 71.489 C 216.785 65.481,225.570 52.885,228.826 49.447 C 233.695 44.307,237.904 42.245,245.980 41.045 C 247.988 40.746,249.744 40.389,249.882 40.251 C 250.020 40.113,249.968 40.019,249.767 40.042 C 249.565 40.066,247.780 40.305,245.800 40.575 M252.000 40.647 C 258.190 41.320,263.989 43.273,270.800 46.980 C 273.770 48.596,278.990 51.300,282.400 52.989 C 291.847 57.669,294.217 59.946,296.068 66.123 C 296.761 68.437,296.799 68.485,296.637 66.853 C 296.071 61.154,292.233 57.225,282.685 52.569 C 278.898 50.723,273.577 47.963,270.859 46.435 C 264.619 42.928,258.394 40.807,253.800 40.623 C 252.040 40.552,251.230 40.563,252.000 40.647 M296.286 71.445 C 296.122 72.570,295.518 74.370,294.944 75.445 C 294.370 76.520,293.151 78.840,292.234 80.600 C 290.378 84.163,290.113 84.604,286.588 90.000 C 285.223 92.090,283.596 94.610,282.972 95.600 C 282.349 96.590,278.937 103.160,275.389 110.200 C 271.841 117.240,267.588 125.430,265.937 128.400 C 264.286 131.370,262.565 134.520,262.111 135.400 C 261.658 136.280,260.358 138.620,259.223 140.600 C 255.986 146.245,252.330 153.996,249.413 161.400 C 247.939 165.140,245.828 170.441,244.722 173.179 C 242.616 178.391,241.958 180.382,238.758 191.200 C 235.975 200.611,234.333 206.799,234.493 207.280 C 234.569 207.507,235.368 205.018,236.269 201.747 C 240.977 184.656,242.605 179.733,248.091 166.000 C 252.870 154.037,255.245 148.763,258.303 143.326 C 259.393 141.386,260.965 138.540,261.795 137.000 C 262.625 135.460,264.168 132.670,265.225 130.800 C 268.524 124.957,271.876 118.519,276.365 109.400 C 281.155 99.671,282.390 97.454,286.630 90.984 C 288.221 88.555,290.196 85.315,291.018 83.784 C 291.841 82.253,293.282 79.650,294.222 78.000 C 296.168 74.584,296.935 72.317,296.728 70.593 C 296.614 69.637,296.526 69.806,296.286 71.445 M189.022 126.683 C 188.166 128.900,184.802 138.817,184.816 139.084 C 184.845 139.683,186.062 136.587,187.823 131.428 C 188.794 128.583,189.524 126.191,189.444 126.111 C 189.364 126.031,189.174 126.288,189.022 126.683 M184.186 140.653 C 183.885 142.019,182.463 147.320,181.957 148.960 C 181.572 150.212,181.490 151.043,181.781 150.752 C 182.139 150.394,184.864 139.930,184.654 139.720 C 184.536 139.602,184.325 140.022,184.186 140.653 M180.536 153.900 C 180.082 155.385,178.982 158.854,178.091 161.608 C 177.200 164.362,176.367 167.332,176.240 168.208 L 176.009 169.800 176.418 168.400 C 176.644 167.630,177.803 163.940,178.994 160.200 C 181.272 153.049,181.792 151.200,181.524 151.200 C 181.434 151.200,180.990 152.415,180.536 153.900 M135.200 159.595 C 134.430 159.754,135.690 159.795,138.000 159.686 C 140.310 159.578,142.275 159.424,142.367 159.345 C 142.664 159.087,136.642 159.297,135.200 159.595 M145.200 159.569 C 147.742 159.795,147.811 159.831,148.277 161.200 C 148.583 162.096,148.763 162.308,148.777 161.789 C 148.829 159.935,147.742 159.195,145.077 159.269 L 142.600 159.338 145.200 159.569 M128.800 160.407 C 128.179 160.611,128.709 160.651,130.200 160.512 C 131.520 160.389,132.675 160.224,132.767 160.144 C 133.089 159.865,129.788 160.084,128.800 160.407 M123.600 161.213 C 122.954 161.429,123.380 161.466,124.800 161.319 C 126.010 161.194,127.075 161.026,127.167 160.946 C 127.487 160.665,124.591 160.883,123.600 161.213 M119.200 162.000 C 117.856 162.431,119.308 162.431,121.000 162.000 C 122.078 161.726,122.098 161.694,121.200 161.687 C 120.650 161.683,119.750 161.824,119.200 162.000 M115.400 162.819 C 114.842 163.071,115.085 163.107,116.200 162.938 C 117.080 162.804,117.875 162.628,117.967 162.547 C 118.310 162.244,116.168 162.471,115.400 162.819 M149.044 163.800 C 149.373 165.271,149.602 165.590,149.594 164.567 C 149.591 164.145,149.405 163.530,149.182 163.200 C 148.885 162.762,148.848 162.924,149.044 163.800 M109.000 164.400 C 107.981 164.838,109.032 164.838,110.400 164.400 C 111.204 164.143,111.243 164.077,110.600 164.068 C 110.160 164.062,109.440 164.211,109.000 164.400 M106.200 165.200 C 105.696 165.417,105.622 165.544,106.000 165.544 C 106.330 165.544,106.960 165.389,107.400 165.200 C 107.904 164.983,107.978 164.856,107.600 164.856 C 107.270 164.856,106.640 165.011,106.200 165.200 M149.858 166.800 C 150.175 168.525,150.402 168.851,150.394 167.567 C 150.391 167.035,150.211 166.330,149.994 166.000 C 149.718 165.578,149.677 165.815,149.858 166.800 M100.500 167.034 C 99.785 167.346,99.200 167.690,99.200 167.798 C 99.200 167.976,102.376 166.851,102.767 166.535 C 103.195 166.188,101.662 166.526,100.500 167.034 M97.100 168.629 C 95.549 169.470,95.725 169.761,97.300 168.959 C 98.808 168.193,99.075 167.994,98.567 168.016 C 98.365 168.025,97.705 168.301,97.100 168.629 M150.644 169.800 C 150.973 171.271,151.202 171.590,151.194 170.567 C 151.191 170.145,151.005 169.530,150.782 169.200 C 150.485 168.762,150.448 168.924,150.644 169.800 M94.105 170.525 C 93.393 171.006,92.808 171.544,92.805 171.720 C 92.802 171.897,93.430 171.560,94.200 170.973 C 94.970 170.386,95.600 169.836,95.600 169.753 C 95.600 169.527,95.519 169.569,94.105 170.525 M175.190 171.660 C 174.935 172.617,174.293 174.905,173.763 176.745 C 173.234 178.584,172.813 180.474,172.829 180.945 C 172.846 181.415,173.193 180.540,173.600 179.000 C 174.008 177.460,174.722 174.872,175.187 173.249 C 175.651 171.626,175.946 170.213,175.842 170.109 C 175.738 170.005,175.444 170.702,175.190 171.660 M151.444 173.000 C 151.773 174.471,152.002 174.790,151.994 173.767 C 151.991 173.345,151.805 172.730,151.582 172.400 C 151.285 171.962,151.248 172.124,151.444 173.000 M90.535 174.124 C 90.069 174.826,89.488 175.793,89.244 176.274 C 88.765 177.216,88.672 185.736,89.128 186.885 C 89.278 187.262,89.336 185.415,89.258 182.781 C 89.095 177.310,89.195 176.708,90.610 174.624 C 91.176 173.789,91.582 173.048,91.511 172.977 C 91.440 172.907,91.001 173.423,90.535 174.124 M152.068 175.200 C 152.088 176.239,152.718 177.946,152.732 177.000 C 152.738 176.560,152.589 175.840,152.400 175.400 C 152.189 174.910,152.061 174.832,152.068 175.200 M153.044 179.000 C 153.373 180.471,153.602 180.790,153.594 179.767 C 153.591 179.345,153.405 178.730,153.182 178.400 C 152.885 177.962,152.848 178.124,153.044 179.000 M153.656 181.200 C 153.656 181.530,153.811 182.160,154.000 182.600 C 154.217 183.104,154.344 183.178,154.344 182.800 C 154.344 182.470,154.189 181.840,154.000 181.400 C 153.783 180.896,153.656 180.822,153.656 181.200 M171.643 185.810 C 171.149 188.005,170.488 190.850,170.173 192.132 C 169.858 193.415,169.625 195.035,169.654 195.732 C 169.700 196.795,169.735 196.838,169.872 196.000 C 169.962 195.450,170.666 192.237,171.438 188.860 C 172.209 185.483,172.772 182.517,172.690 182.270 C 172.608 182.023,172.136 183.616,171.643 185.810 M154.456 184.000 C 154.456 184.330,154.611 184.960,154.800 185.400 C 155.017 185.904,155.144 185.978,155.144 185.600 C 155.144 185.270,154.989 184.640,154.800 184.200 C 154.583 183.696,154.456 183.622,154.456 184.000 M155.458 187.600 C 155.775 189.325,156.002 189.651,155.994 188.367 C 155.991 187.835,155.811 187.130,155.594 186.800 C 155.318 186.378,155.277 186.615,155.458 187.600 M89.668 188.600 C 89.662 189.040,89.811 189.760,90.000 190.200 C 90.438 191.219,90.438 190.168,90.000 188.800 C 89.743 187.996,89.677 187.957,89.668 188.600 M156.262 191.000 C 156.396 191.880,156.572 192.675,156.653 192.767 C 156.956 193.110,156.729 190.968,156.381 190.200 C 156.129 189.642,156.093 189.885,156.262 191.000 M90.406 191.833 C 90.409 192.255,90.595 192.870,90.818 193.200 C 91.115 193.638,91.152 193.476,90.956 192.600 C 90.627 191.129,90.398 190.810,90.406 191.833 M157.062 195.000 C 157.196 195.880,157.372 196.675,157.453 196.767 C 157.756 197.110,157.529 194.968,157.181 194.200 C 156.929 193.642,156.893 193.885,157.062 195.000 M91.206 194.833 C 91.209 195.365,91.389 196.070,91.606 196.400 C 91.882 196.822,91.923 196.585,91.742 195.600 C 91.425 193.875,91.198 193.549,91.206 194.833 M157.862 198.600 C 157.996 199.480,158.172 200.275,158.253 200.367 C 158.556 200.710,158.329 198.568,157.981 197.800 C 157.729 197.242,157.693 197.485,157.862 198.600 M168.992 198.659 C 168.671 200.564,167.239 206.726,165.312 214.500 C 163.955 219.974,163.264 221.384,162.665 219.900 C 162.536 219.582,162.452 219.636,162.432 220.051 C 162.401 220.672,163.469 221.885,163.757 221.557 C 164.101 221.164,166.404 212.656,166.994 209.600 C 167.354 207.730,167.900 205.390,168.206 204.400 C 168.916 202.101,169.711 197.578,169.451 197.318 C 169.341 197.208,169.135 197.812,168.992 198.659 M92.006 198.233 C 92.009 198.655,92.195 199.270,92.418 199.600 C 92.715 200.038,92.752 199.876,92.556 199.000 C 92.227 197.529,91.998 197.210,92.006 198.233 M92.868 201.400 C 92.862 201.840,93.011 202.560,93.200 203.000 C 93.638 204.019,93.638 202.968,93.200 201.600 C 92.943 200.796,92.877 200.757,92.868 201.400 M158.662 202.200 C 158.796 203.080,158.972 203.875,159.053 203.967 C 159.356 204.310,159.129 202.168,158.781 201.400 C 158.529 200.842,158.493 201.085,158.662 202.200 M264.400 201.218 C 263.962 201.515,264.124 201.552,265.000 201.356 C 266.471 201.027,266.790 200.798,265.767 200.806 C 265.345 200.809,264.730 200.995,264.400 201.218 M270.033 200.944 C 270.125 201.023,270.740 201.208,271.400 201.356 C 272.276 201.552,272.438 201.515,272.000 201.218 C 271.460 200.853,269.632 200.598,270.033 200.944 M261.229 202.774 C 260.443 203.271,245.565 218.080,246.007 217.925 C 246.276 217.830,262.045 202.377,261.842 202.406 C 261.819 202.409,261.543 202.575,261.229 202.774 M274.800 202.518 C 274.800 202.610,275.925 203.372,277.300 204.209 C 278.953 205.217,282.713 208.649,288.400 214.342 C 293.130 219.077,296.232 222.033,295.293 220.911 C 289.533 214.029,274.800 200.806,274.800 202.518 M93.668 204.600 C 93.662 205.040,93.811 205.760,94.000 206.200 C 94.438 207.219,94.438 206.168,94.000 204.800 C 93.743 203.996,93.677 203.957,93.668 204.600 M159.462 206.200 C 159.596 207.080,159.772 207.875,159.853 207.967 C 160.156 208.310,159.929 206.168,159.581 205.400 C 159.329 204.842,159.293 205.085,159.462 206.200 M94.468 207.800 C 94.462 208.240,94.611 208.960,94.800 209.400 C 95.238 210.419,95.238 209.368,94.800 208.000 C 94.543 207.196,94.477 207.157,94.468 207.800 M232.692 213.840 C 231.885 217.118,231.038 220.880,230.810 222.200 C 230.582 223.520,230.121 225.860,229.786 227.400 C 228.454 233.530,228.546 234.164,230.497 232.300 C 231.015 231.805,231.146 231.625,230.788 231.900 C 229.857 232.615,229.600 232.525,229.600 231.482 C 229.600 230.296,231.619 220.376,233.198 213.810 C 233.875 210.992,234.368 208.505,234.294 208.283 C 234.220 208.061,233.499 210.561,232.692 213.840 M160.262 209.800 C 160.396 210.680,160.572 211.475,160.653 211.567 C 160.956 211.910,160.729 209.768,160.381 209.000 C 160.129 208.442,160.093 208.685,160.262 209.800 M95.228 211.233 C 95.244 211.765,95.419 212.560,95.619 213.000 C 95.871 213.558,95.907 213.315,95.738 212.200 C 95.455 210.343,95.187 209.836,95.228 211.233 M96.068 214.600 C 96.062 215.040,96.211 215.760,96.400 216.200 C 96.838 217.219,96.838 216.168,96.400 214.800 C 96.143 213.996,96.077 213.957,96.068 214.600 M161.862 217.400 C 161.996 218.280,162.172 219.075,162.253 219.167 C 162.556 219.510,162.329 217.368,161.981 216.600 C 161.729 216.042,161.693 216.285,161.862 217.400 M96.806 218.033 C 96.809 218.565,96.989 219.270,97.206 219.600 C 97.482 220.022,97.523 219.785,97.342 218.800 C 97.025 217.075,96.798 216.749,96.806 218.033 M241.200 222.106 C 239.550 223.698,236.807 226.305,235.104 227.900 C 233.401 229.495,232.141 230.796,232.304 230.792 C 232.641 230.783,244.707 219.246,244.400 219.226 C 244.290 219.219,242.850 220.515,241.200 222.106 M97.668 221.400 C 97.662 221.840,97.811 222.560,98.000 223.000 C 98.438 224.019,98.438 222.968,98.000 221.600 C 97.743 220.796,97.677 220.757,97.668 221.400 M299.454 226.500 C 302.251 229.999,303.812 231.732,302.759 230.170 C 301.507 228.312,297.380 223.236,297.108 223.218 C 296.948 223.208,298.004 224.685,299.454 226.500 M98.406 224.833 C 98.409 225.365,98.589 226.070,98.806 226.400 C 99.082 226.822,99.123 226.585,98.942 225.600 C 98.625 223.875,98.398 223.549,98.406 224.833 M99.268 228.200 C 99.262 228.640,99.411 229.360,99.600 229.800 C 100.038 230.819,100.038 229.768,99.600 228.400 C 99.343 227.596,99.277 227.557,99.268 228.200 M100.006 231.633 C 100.009 232.165,100.189 232.870,100.406 233.200 C 100.682 233.622,100.723 233.385,100.542 232.400 C 100.225 230.675,99.998 230.349,100.006 231.633 M305.722 234.859 C 308.550 238.962,310.000 241.601,310.000 242.646 C 310.000 243.018,303.119 250.180,294.709 258.562 C 286.299 266.943,280.854 272.511,282.609 270.936 C 288.262 265.863,310.196 243.616,310.324 242.826 C 310.523 241.597,304.987 232.257,303.523 231.353 C 303.314 231.223,304.303 232.801,305.722 234.859 M100.868 235.000 C 100.862 235.440,101.011 236.160,101.200 236.600 C 101.638 237.619,101.638 236.568,101.200 235.200 C 100.943 234.396,100.877 234.357,100.868 235.000 M101.628 238.433 C 101.644 238.965,101.819 239.760,102.019 240.200 C 102.271 240.758,102.307 240.515,102.138 239.400 C 101.855 237.543,101.587 237.036,101.628 238.433 M103.268 245.400 C 103.262 245.840,103.411 246.560,103.600 247.000 C 104.038 248.019,104.038 246.968,103.600 245.600 C 103.343 244.796,103.277 244.757,103.268 245.400 M104.028 248.833 C 104.044 249.365,104.219 250.160,104.419 250.600 C 104.671 251.158,104.707 250.915,104.538 249.800 C 104.255 247.943,103.987 247.436,104.028 248.833 M104.868 252.200 C 104.862 252.640,105.011 253.360,105.200 253.800 C 105.638 254.819,105.638 253.768,105.200 252.400 C 104.943 251.596,104.877 251.557,104.868 252.200 M105.668 255.800 C 105.662 256.240,105.811 256.960,106.000 257.400 C 106.438 258.419,106.438 257.368,106.000 256.000 C 105.743 255.196,105.677 255.157,105.668 255.800 M106.428 259.233 C 106.444 259.765,106.619 260.560,106.819 261.000 C 107.071 261.558,107.107 261.315,106.938 260.200 C 106.655 258.343,106.387 257.836,106.428 259.233 M107.228 263.233 C 107.244 263.765,107.419 264.560,107.619 265.000 C 107.871 265.558,107.907 265.315,107.738 264.200 C 107.455 262.343,107.187 261.836,107.228 263.233 M108.028 266.833 C 108.044 267.365,108.219 268.160,108.419 268.600 C 108.671 269.158,108.707 268.915,108.538 267.800 C 108.255 265.943,107.987 265.436,108.028 266.833 M108.828 270.833 C 108.844 271.365,109.019 272.160,109.219 272.600 C 109.471 273.158,109.507 272.915,109.338 271.800 C 109.055 269.943,108.787 269.436,108.828 270.833 M109.687 274.400 C 109.683 274.950,109.824 275.850,110.000 276.400 C 110.431 277.744,110.431 276.292,110.000 274.600 C 109.726 273.522,109.694 273.502,109.687 274.400 M275.176 277.312 C 271.728 280.623,272.653 279.955,276.876 276.086 C 278.128 274.939,279.028 274.005,278.876 274.012 C 278.724 274.019,277.059 275.504,275.176 277.312 M110.487 278.400 C 110.483 278.950,110.624 279.850,110.800 280.400 C 111.231 281.744,111.231 280.292,110.800 278.600 C 110.526 277.522,110.494 277.502,110.487 278.400 M265.400 285.869 C 262.320 288.600,259.350 291.318,258.800 291.911 C 257.669 293.128,257.895 292.937,264.411 287.172 C 266.506 285.317,268.910 283.204,269.753 282.475 C 270.595 281.747,271.220 281.095,271.142 281.027 C 271.064 280.959,268.480 283.138,265.400 285.869 M111.228 282.633 C 111.244 283.275,111.416 284.160,111.610 284.600 C 111.847 285.134,111.886 284.802,111.727 283.600 C 111.446 281.480,111.188 280.980,111.228 282.633 M112.028 286.633 C 112.044 287.275,112.216 288.160,112.410 288.600 C 112.647 289.134,112.686 288.802,112.527 287.600 C 112.246 285.480,111.988 284.980,112.028 286.633 M112.828 290.633 C 112.844 291.275,113.016 292.160,113.210 292.600 C 113.447 293.134,113.486 292.802,113.327 291.600 C 113.046 289.480,112.788 288.980,112.828 290.633 M251.600 298.055 C 248.410 300.902,245.080 303.972,244.200 304.876 C 243.320 305.779,245.304 304.107,248.608 301.160 C 251.913 298.212,255.307 295.204,256.150 294.475 C 256.994 293.747,257.620 293.089,257.542 293.014 C 257.464 292.939,254.790 295.207,251.600 298.055 M113.628 294.633 C 113.644 295.275,113.816 296.160,114.010 296.600 C 114.247 297.134,114.286 296.802,114.127 295.600 C 113.846 293.480,113.588 292.980,113.628 294.633 M114.428 298.633 C 114.444 299.275,114.616 300.160,114.810 300.600 C 115.047 301.134,115.086 300.802,114.927 299.600 C 114.646 297.480,114.388 296.980,114.428 298.633 M115.228 302.833 C 115.244 303.365,115.419 304.160,115.619 304.600 C 115.871 305.158,115.907 304.915,115.738 303.800 C 115.455 301.943,115.187 301.436,115.228 302.833 M116.028 306.833 C 116.044 307.365,116.219 308.160,116.419 308.600 C 116.671 309.158,116.707 308.915,116.538 307.800 C 116.255 305.943,115.987 305.436,116.028 306.833 M116.856 310.000 C 116.856 310.330,117.011 310.960,117.200 311.400 C 117.417 311.904,117.544 311.978,117.544 311.600 C 117.544 311.270,117.389 310.640,117.200 310.200 C 116.983 309.696,116.856 309.622,116.856 310.000 M227.997 321.100 L 217.000 332.200 228.100 321.203 C 234.205 315.154,239.200 310.159,239.200 310.103 C 239.200 309.820,238.217 310.785,227.997 321.100 M117.687 313.600 C 117.683 314.150,117.824 315.050,118.000 315.600 C 118.431 316.944,118.431 315.492,118.000 313.800 C 117.726 312.722,117.694 312.702,117.687 313.600 M118.473 318.200 C 118.458 318.860,118.595 320.120,118.777 321.000 C 119.213 323.106,119.250 321.214,118.820 318.800 C 118.580 317.450,118.493 317.300,118.473 318.200 M119.301 324.600 C 119.305 325.480,119.387 325.793,119.483 325.295 C 119.579 324.798,119.575 324.078,119.475 323.695 C 119.375 323.313,119.296 323.720,119.301 324.600 M120.028 329.233 C 120.044 329.765,120.219 330.560,120.419 331.000 C 120.671 331.558,120.707 331.315,120.538 330.200 C 120.255 328.343,119.987 327.836,120.028 329.233 M120.806 332.633 C 120.809 333.055,120.995 333.670,121.218 334.000 C 121.515 334.438,121.552 334.276,121.356 333.400 C 121.027 331.929,120.798 331.610,120.806 332.633 M210.969 337.542 C 208.311 340.104,207.141 341.311,208.369 340.226 C 211.700 337.278,216.046 333.111,215.915 332.990 C 215.852 332.932,213.626 334.980,210.969 337.542 M121.604 335.022 C 121.580 337.691,131.449 345.697,134.629 345.587 C 134.833 345.580,133.380 344.788,131.400 343.827 C 127.156 341.766,124.401 339.471,122.781 336.646 C 122.136 335.521,121.606 334.790,121.604 335.022 M202.000 345.686 C 200.130 347.453,199.410 348.217,200.400 347.384 C 203.330 344.918,205.670 342.737,205.530 342.601 C 205.459 342.531,203.870 343.919,202.000 345.686 M195.200 351.683 L 192.200 354.493 195.200 351.962 C 196.850 350.570,198.275 349.379,198.367 349.316 C 198.458 349.252,198.458 349.126,198.367 349.036 C 198.275 348.946,196.850 350.137,195.200 351.683 M189.600 356.457 L 187.400 358.489 189.499 356.808 C 191.339 355.334,192.313 354.373,191.924 354.413 C 191.856 354.420,190.810 355.340,189.600 356.457 M162.800 355.582 C 163.130 355.805,163.745 355.991,164.167 355.994 C 165.190 356.002,164.871 355.773,163.400 355.444 C 162.524 355.248,162.362 355.285,162.800 355.582 M165.600 356.382 C 165.930 356.605,166.545 356.791,166.967 356.794 C 167.990 356.802,167.671 356.573,166.200 356.244 C 165.324 356.048,165.162 356.085,165.600 356.382 M168.400 357.182 C 168.730 357.405,169.345 357.591,169.767 357.594 C 170.790 357.602,170.471 357.373,169.000 357.044 C 168.124 356.848,167.962 356.885,168.400 357.182 M171.400 358.000 C 171.840 358.189,172.560 358.338,173.000 358.332 C 173.643 358.323,173.604 358.257,172.800 358.000 C 171.432 357.562,170.381 357.562,171.400 358.000 M174.800 358.800 C 175.350 358.976,176.250 359.117,176.800 359.113 C 177.698 359.106,177.678 359.074,176.600 358.800 C 174.908 358.369,173.456 358.369,174.800 358.800 M178.627 359.885 C 179.669 360.926,184.028 361.115,184.983 360.160 C 185.523 359.619,185.576 359.392,185.188 359.263 C 184.903 359.168,184.454 359.385,184.191 359.745 C 183.560 360.607,180.581 360.649,180.255 359.800 C 180.129 359.470,179.557 359.200,178.984 359.200 C 178.001 359.200,177.981 359.238,178.627 359.885 " stroke="none" fill="#fc8a62" fill-rule="evenodd"></path><path id="path3" d="M243.000 40.395 C 242.340 40.572,241.284 40.834,240.653 40.978 C 240.022 41.121,239.590 41.324,239.694 41.427 C 239.798 41.531,241.034 41.353,242.441 41.032 C 243.849 40.711,245.630 40.376,246.400 40.288 C 247.595 40.151,247.537 40.124,246.000 40.100 C 245.010 40.085,243.660 40.217,243.000 40.395 M255.390 40.413 C 259.332 41.041,265.947 43.459,270.200 45.827 C 279.145 50.808,280.045 51.288,280.183 51.147 C 281.433 49.871,260.225 40.490,255.400 40.185 L 253.000 40.033 255.390 40.413 M234.274 43.683 C 231.033 45.442,223.507 52.800,224.950 52.800 C 225.058 52.800,225.993 51.724,227.026 50.408 C 229.094 47.776,231.921 45.434,235.239 43.606 C 236.428 42.951,237.220 42.416,237.000 42.418 C 236.780 42.420,235.553 42.989,234.274 43.683 M280.833 51.366 C 280.925 51.458,282.980 52.529,285.400 53.745 C 296.955 59.556,300.273 68.691,294.303 78.255 C 293.772 79.105,292.467 81.420,291.403 83.400 C 290.339 85.380,287.933 89.337,286.056 92.194 C 282.779 97.181,274.951 111.884,275.356 112.290 C 275.510 112.443,281.663 100.746,282.347 99.000 C 282.434 98.780,283.679 96.800,285.114 94.600 C 289.498 87.882,290.199 86.718,292.241 82.771 C 292.859 81.577,293.981 79.627,294.734 78.438 C 299.586 70.779,297.948 61.458,290.854 56.357 C 288.305 54.525,279.709 50.243,280.833 51.366 M222.875 55.300 C 221.225 57.534,217.640 62.917,213.958 68.687 C 211.585 72.406,207.999 78.893,208.001 79.462 C 208.003 79.895,209.090 78.099,210.820 74.800 C 212.745 71.130,219.272 60.947,223.190 55.500 C 224.100 54.235,224.750 53.200,224.635 53.200 C 224.519 53.200,223.727 54.145,222.875 55.300 M206.273 82.500 C 204.301 86.032,199.886 95.619,200.122 95.855 C 200.199 95.932,200.770 94.871,201.392 93.498 C 202.014 92.124,203.748 88.525,205.246 85.500 C 208.137 79.662,208.580 78.368,206.273 82.500 M198.261 99.572 C 196.484 103.459,195.129 106.862,195.291 107.025 C 195.358 107.091,196.449 104.792,197.716 101.916 C 198.983 99.039,199.952 96.618,199.869 96.536 C 199.786 96.453,199.063 97.819,198.261 99.572 M193.200 112.709 C 191.256 118.208,190.903 119.424,191.550 118.399 C 192.105 117.519,195.238 108.312,195.109 107.937 C 195.049 107.761,194.190 109.909,193.200 112.709 M272.000 118.535 C 268.602 124.951,268.475 125.229,269.306 124.400 C 270.028 123.681,275.395 113.261,275.162 113.030 C 275.073 112.942,273.650 115.419,272.000 118.535 M190.600 120.000 C 190.450 120.473,190.417 120.950,190.527 121.060 C 190.637 121.170,190.850 120.873,191.000 120.400 C 191.150 119.927,191.183 119.450,191.073 119.340 C 190.963 119.230,190.750 119.527,190.600 120.000 M189.115 124.714 C 188.540 126.411,187.514 129.389,186.835 131.331 C 186.156 133.273,185.610 135.073,185.621 135.331 C 185.643 135.805,188.726 127.435,189.847 123.861 C 190.844 120.678,190.246 121.376,189.115 124.714 M267.977 126.066 C 267.405 127.160,266.712 128.425,261.048 138.708 C 255.106 149.494,247.477 166.010,248.133 166.666 C 248.215 166.748,249.405 164.157,250.779 160.908 C 254.948 151.045,257.588 145.675,262.831 136.400 C 267.361 128.384,268.869 125.535,268.680 125.347 C 268.562 125.228,268.245 125.552,267.977 126.066 M184.494 138.290 C 183.353 141.502,182.320 145.253,182.521 145.454 C 182.613 145.546,182.997 144.492,183.373 143.111 C 183.750 141.730,184.412 139.631,184.843 138.447 C 185.275 137.263,185.557 136.224,185.471 136.138 C 185.385 136.051,184.945 137.020,184.494 138.290 M181.822 147.422 C 181.672 148.225,181.628 148.962,181.726 149.060 C 181.824 149.157,182.027 148.581,182.178 147.778 C 182.328 146.975,182.372 146.238,182.274 146.140 C 182.176 146.043,181.973 146.619,181.822 147.422 M179.100 156.531 C 178.275 159.023,177.608 161.318,177.618 161.631 C 177.627 161.944,178.354 160.060,179.232 157.444 C 180.111 154.829,180.778 152.534,180.715 152.345 C 180.652 152.156,179.925 154.039,179.100 156.531 M140.100 159.096 C 141.365 159.175,143.435 159.175,144.700 159.096 C 145.965 159.016,144.930 158.951,142.400 158.951 C 139.870 158.951,138.835 159.016,140.100 159.096 M131.800 159.600 C 130.439 159.844,130.379 159.892,131.400 159.920 C 132.060 159.939,133.320 159.805,134.200 159.623 C 136.293 159.190,134.202 159.170,131.800 159.600 M126.200 160.400 C 125.122 160.674,125.102 160.706,126.000 160.713 C 126.550 160.717,127.450 160.576,128.000 160.400 C 129.344 159.969,127.892 159.969,126.200 160.400 M121.600 161.200 C 120.796 161.457,120.757 161.523,121.400 161.532 C 121.840 161.538,122.560 161.389,123.000 161.200 C 124.019 160.762,122.968 160.762,121.600 161.200 M117.400 162.000 C 116.381 162.438,117.432 162.438,118.800 162.000 C 119.604 161.743,119.643 161.677,119.000 161.668 C 118.560 161.662,117.840 161.811,117.400 162.000 M113.800 162.800 C 113.296 163.017,113.222 163.144,113.600 163.144 C 113.930 163.144,114.560 162.989,115.000 162.800 C 115.504 162.583,115.578 162.456,115.200 162.456 C 114.870 162.456,114.240 162.611,113.800 162.800 M177.000 163.200 C 176.850 163.673,176.817 164.150,176.927 164.260 C 177.037 164.370,177.250 164.073,177.400 163.600 C 177.550 163.127,177.583 162.650,177.473 162.540 C 177.363 162.430,177.150 162.727,177.000 163.200 M149.656 164.400 C 149.656 164.730,149.811 165.360,150.000 165.800 C 150.217 166.304,150.344 166.378,150.344 166.000 C 150.344 165.670,150.189 165.040,150.000 164.600 C 149.783 164.096,149.656 164.022,149.656 164.400 M176.229 165.829 C 176.081 166.415,176.038 166.972,176.132 167.066 C 176.227 167.160,176.424 166.758,176.571 166.171 C 176.719 165.585,176.762 165.028,176.668 164.934 C 176.573 164.840,176.376 165.242,176.229 165.829 M247.600 167.268 C 247.600 167.378,246.422 170.581,244.983 174.384 C 243.544 178.188,242.437 181.371,242.524 181.458 C 242.695 181.629,243.495 179.662,246.266 172.254 C 247.242 169.644,247.942 167.409,247.821 167.287 C 247.699 167.166,247.600 167.157,247.600 167.268 M174.640 171.578 C 174.002 173.798,173.577 175.710,173.695 175.829 C 173.813 175.947,174.134 175.088,174.409 173.922 C 174.683 172.755,175.169 171.136,175.488 170.324 C 175.807 169.512,176.008 168.554,175.934 168.195 C 175.860 167.836,175.278 169.358,174.640 171.578 M151.206 170.633 C 151.209 171.055,151.395 171.670,151.618 172.000 C 151.915 172.438,151.952 172.276,151.756 171.400 C 151.427 169.929,151.198 169.610,151.206 170.633 M91.578 172.300 L 90.200 173.800 91.796 172.400 C 92.673 171.630,93.468 170.955,93.562 170.900 C 93.656 170.845,93.559 170.800,93.345 170.800 C 93.132 170.800,92.337 171.475,91.578 172.300 M152.056 173.600 C 152.056 173.930,152.211 174.560,152.400 175.000 C 152.617 175.504,152.744 175.578,152.744 175.200 C 152.744 174.870,152.589 174.240,152.400 173.800 C 152.183 173.296,152.056 173.222,152.056 173.600 M152.856 176.800 C 152.856 177.130,153.011 177.760,153.200 178.200 C 153.417 178.704,153.544 178.778,153.544 178.400 C 153.544 178.070,153.389 177.440,153.200 177.000 C 152.983 176.496,152.856 176.422,152.856 176.800 M173.073 176.953 C 172.923 177.345,172.811 177.966,172.825 178.333 C 172.842 178.775,172.981 178.674,173.237 178.034 C 173.449 177.503,173.561 176.882,173.485 176.654 C 173.409 176.427,173.224 176.561,173.073 176.953 M88.550 181.400 C 88.551 183.820,88.616 184.758,88.696 183.485 C 88.776 182.212,88.775 180.232,88.694 179.085 C 88.614 177.938,88.549 178.980,88.550 181.400 M172.291 180.600 C 172.162 181.260,171.771 182.970,171.422 184.400 C 171.072 185.830,170.699 187.630,170.591 188.400 C 170.484 189.170,170.758 188.360,171.200 186.600 C 171.641 184.840,172.204 182.746,172.450 181.946 C 172.696 181.147,172.814 180.247,172.712 179.946 C 172.610 179.646,172.421 179.940,172.291 180.600 M240.251 188.437 C 239.200 191.977,238.414 194.947,238.504 195.037 C 238.654 195.188,241.651 185.590,242.231 183.100 C 242.945 180.033,241.947 182.723,240.251 188.437 M88.856 187.200 C 88.856 187.530,89.011 188.160,89.200 188.600 C 89.417 189.104,89.544 189.178,89.544 188.800 C 89.544 188.470,89.389 187.840,89.200 187.400 C 88.983 186.896,88.856 186.822,88.856 187.200 M156.056 188.400 C 156.056 188.730,156.211 189.360,156.400 189.800 C 156.617 190.304,156.744 190.378,156.744 190.000 C 156.744 189.670,156.589 189.040,156.400 188.600 C 156.183 188.096,156.056 188.022,156.056 188.400 M170.049 190.600 C 170.016 191.040,169.896 191.850,169.783 192.400 L 169.577 193.400 170.006 192.419 C 170.242 191.879,170.361 191.069,170.272 190.619 C 170.113 189.821,170.107 189.821,170.049 190.600 M156.868 192.200 C 156.862 192.640,157.011 193.360,157.200 193.800 C 157.638 194.819,157.638 193.768,157.200 192.400 C 156.943 191.596,156.877 191.557,156.868 192.200 M168.840 196.241 C 168.319 198.805,167.804 203.183,168.233 201.400 C 169.183 197.453,169.663 194.823,169.543 194.212 C 169.464 193.810,169.148 194.723,168.840 196.241 M157.668 195.800 C 157.662 196.240,157.811 196.960,158.000 197.400 C 158.438 198.419,158.438 197.368,158.000 196.000 C 157.743 195.196,157.677 195.157,157.668 195.800 M237.605 197.260 C 237.359 198.217,236.717 200.564,236.179 202.475 C 235.241 205.807,234.992 207.142,235.381 206.752 C 235.732 206.401,238.466 195.932,238.260 195.727 C 238.146 195.613,237.851 196.302,237.605 197.260 M91.444 197.400 C 91.773 198.871,92.002 199.190,91.994 198.167 C 91.991 197.745,91.805 197.130,91.582 196.800 C 91.285 196.362,91.248 196.524,91.444 197.400 M158.456 199.600 C 158.456 199.930,158.611 200.560,158.800 201.000 C 159.017 201.504,159.144 201.578,159.144 201.200 C 159.144 200.870,158.989 200.240,158.800 199.800 C 158.583 199.296,158.456 199.222,158.456 199.600 M92.244 200.600 C 92.573 202.071,92.802 202.390,92.794 201.367 C 92.791 200.945,92.605 200.330,92.382 200.000 C 92.085 199.562,92.048 199.724,92.244 200.600 M265.654 200.345 C 265.134 200.491,266.190 200.611,268.000 200.611 C 269.810 200.611,270.866 200.491,270.346 200.345 C 269.826 200.199,268.770 200.080,268.000 200.080 C 267.230 200.080,266.174 200.199,265.654 200.345 M167.429 203.429 C 167.281 204.015,167.251 204.584,167.361 204.694 C 167.471 204.804,167.681 204.415,167.829 203.829 C 167.976 203.242,168.006 202.673,167.896 202.563 C 167.786 202.453,167.576 202.842,167.429 203.429 M275.600 202.519 C 275.600 202.599,276.533 203.270,277.673 204.008 C 278.813 204.747,281.018 206.525,282.573 207.958 C 284.587 209.815,284.882 210.012,283.600 208.645 C 281.198 206.083,275.600 201.796,275.600 202.519 M92.856 203.200 C 92.856 203.530,93.011 204.160,93.200 204.600 C 93.417 205.104,93.544 205.178,93.544 204.800 C 93.544 204.470,93.389 203.840,93.200 203.400 C 92.983 202.896,92.856 202.822,92.856 203.200 M159.268 203.400 C 159.262 203.840,159.411 204.560,159.600 205.000 C 160.038 206.019,160.038 204.968,159.600 203.600 C 159.343 202.796,159.277 202.757,159.268 203.400 M257.200 205.800 C 256.005 207.010,255.149 208.000,255.297 208.000 C 255.445 208.000,256.533 207.010,257.714 205.800 C 258.895 204.590,259.752 203.600,259.617 203.600 C 259.483 203.600,258.395 204.590,257.200 205.800 M166.600 206.800 C 166.448 207.491,166.414 208.147,166.524 208.257 C 166.634 208.367,166.848 207.891,167.000 207.200 C 167.152 206.509,167.186 205.853,167.076 205.743 C 166.966 205.633,166.752 206.109,166.600 206.800 M93.656 206.400 C 93.656 206.730,93.811 207.360,94.000 207.800 C 94.217 208.304,94.344 208.378,94.344 208.000 C 94.344 207.670,94.189 207.040,94.000 206.600 C 93.783 206.096,93.656 206.022,93.656 206.400 M160.068 207.000 C 160.062 207.440,160.211 208.160,160.400 208.600 C 160.838 209.619,160.838 208.568,160.400 207.200 C 160.143 206.396,160.077 206.357,160.068 207.000 M234.596 208.471 C 234.442 209.202,233.716 212.320,232.982 215.400 C 232.248 218.480,231.523 221.720,231.370 222.600 C 230.920 225.205,231.528 223.989,232.181 220.977 C 232.512 219.450,233.332 215.789,234.002 212.843 C 234.672 209.897,235.142 207.409,235.048 207.315 C 234.953 207.220,234.750 207.741,234.596 208.471 M165.441 211.800 C 165.063 213.560,164.584 215.522,164.376 216.160 C 163.881 217.685,163.938 218.481,164.451 217.200 C 165.071 215.651,166.441 209.522,166.276 209.035 C 166.195 208.796,165.819 210.040,165.441 211.800 M94.456 209.600 C 94.456 209.930,94.611 210.560,94.800 211.000 C 95.017 211.504,95.144 211.578,95.144 211.200 C 95.144 210.870,94.989 210.240,94.800 209.800 C 94.583 209.296,94.456 209.222,94.456 209.600 M160.856 210.800 C 160.856 211.130,161.011 211.760,161.200 212.200 C 161.417 212.704,161.544 212.778,161.544 212.400 C 161.544 212.070,161.389 211.440,161.200 211.000 C 160.983 210.496,160.856 210.422,160.856 210.800 M289.000 214.000 C 290.528 215.540,291.869 216.800,291.979 216.800 C 292.089 216.800,290.928 215.540,289.400 214.000 C 287.872 212.460,286.531 211.200,286.421 211.200 C 286.311 211.200,287.472 212.460,289.000 214.000 M242.785 220.121 C 238.486 224.344,236.326 226.545,237.985 225.012 C 243.494 219.918,251.206 212.400,250.901 212.421 C 250.735 212.432,247.083 215.897,242.785 220.121 M161.668 214.600 C 161.662 215.040,161.811 215.760,162.000 216.200 C 162.438 217.219,162.438 216.168,162.000 214.800 C 161.743 213.996,161.677 213.957,161.668 214.600 M96.056 216.400 C 96.056 216.730,96.211 217.360,96.400 217.800 C 96.617 218.304,96.744 218.378,96.744 218.000 C 96.744 217.670,96.589 217.040,96.400 216.600 C 96.183 216.096,96.056 216.022,96.056 216.400 M162.454 218.126 C 162.380 219.114,163.151 220.477,163.620 220.188 C 163.829 220.058,163.986 219.558,163.968 219.076 C 163.951 218.594,163.846 218.425,163.735 218.700 C 163.416 219.490,162.872 219.284,162.682 218.300 C 162.557 217.651,162.494 217.602,162.454 218.126 M294.200 219.600 C 295.059 220.480,295.852 221.200,295.962 221.200 C 296.072 221.200,295.459 220.480,294.600 219.600 C 293.741 218.720,292.948 218.000,292.838 218.000 C 292.728 218.000,293.341 218.720,294.200 219.600 M97.044 220.600 C 97.373 222.071,97.602 222.390,97.594 221.367 C 97.591 220.945,97.405 220.330,97.182 220.000 C 96.885 219.562,96.848 219.724,97.044 220.600 M296.834 222.647 C 297.365 223.333,297.880 223.823,297.979 223.735 C 298.077 223.647,297.643 223.086,297.013 222.488 L 295.869 221.400 296.834 222.647 M97.656 223.200 C 97.656 223.530,97.811 224.160,98.000 224.600 C 98.217 225.104,98.344 225.178,98.344 224.800 C 98.344 224.470,98.189 223.840,98.000 223.400 C 97.783 222.896,97.656 222.822,97.656 223.200 M230.800 224.889 C 230.800 225.012,230.520 226.587,230.178 228.390 C 229.365 232.674,229.516 232.920,231.647 230.789 C 232.631 229.805,232.845 229.528,232.124 230.173 C 230.393 231.720,230.172 231.359,230.776 227.976 C 231.054 226.421,231.173 225.040,231.041 224.908 C 230.908 224.775,230.800 224.767,230.800 224.889 M98.644 227.400 C 98.973 228.871,99.202 229.190,99.194 228.167 C 99.191 227.745,99.005 227.130,98.782 226.800 C 98.485 226.362,98.448 226.524,98.644 227.400 M302.391 229.588 C 302.857 230.241,303.442 230.902,303.691 231.056 C 303.941 231.211,303.641 230.676,303.025 229.868 C 301.688 228.115,301.184 227.892,302.391 229.588 M99.256 230.000 C 99.256 230.330,99.411 230.960,99.600 231.400 C 99.817 231.904,99.944 231.978,99.944 231.600 C 99.944 231.270,99.789 230.640,99.600 230.200 C 99.383 229.696,99.256 229.622,99.256 230.000 M305.632 234.000 C 307.103 236.097,308.203 237.317,307.344 235.900 C 306.608 234.684,304.307 231.600,304.137 231.600 C 304.034 231.600,304.706 232.680,305.632 234.000 M100.244 234.200 C 100.573 235.671,100.802 235.990,100.794 234.967 C 100.791 234.545,100.605 233.930,100.382 233.600 C 100.085 233.162,100.048 233.324,100.244 234.200 M100.856 236.800 C 100.856 237.130,101.011 237.760,101.200 238.200 C 101.417 238.704,101.544 238.778,101.544 238.400 C 101.544 238.070,101.389 237.440,101.200 237.000 C 100.983 236.496,100.856 236.422,100.856 236.800 M307.949 237.400 C 308.165 237.840,308.634 238.560,308.993 239.000 L 309.644 239.800 309.251 239.000 C 309.035 238.560,308.566 237.840,308.207 237.400 L 307.556 236.600 307.949 237.400 M101.656 240.400 C 101.656 240.730,101.811 241.360,102.000 241.800 C 102.217 242.304,102.344 242.378,102.344 242.000 C 102.344 241.670,102.189 241.040,102.000 240.600 C 101.783 240.096,101.656 240.022,101.656 240.400 M102.644 244.600 C 102.973 246.071,103.202 246.390,103.194 245.367 C 103.191 244.945,103.005 244.330,102.782 244.000 C 102.485 243.562,102.448 243.724,102.644 244.600 M300.797 253.100 L 291.800 262.200 300.900 253.203 C 309.356 244.844,310.180 244.000,309.897 244.000 C 309.840 244.000,305.745 248.095,300.797 253.100 M103.256 247.200 C 103.256 247.530,103.411 248.160,103.600 248.600 C 103.817 249.104,103.944 249.178,103.944 248.800 C 103.944 248.470,103.789 247.840,103.600 247.400 C 103.383 246.896,103.256 246.822,103.256 247.200 M104.056 250.800 C 104.056 251.130,104.211 251.760,104.400 252.200 C 104.617 252.704,104.744 252.778,104.744 252.400 C 104.744 252.070,104.589 251.440,104.400 251.000 C 104.183 250.496,104.056 250.422,104.056 250.800 M104.868 254.000 C 104.888 255.039,105.518 256.746,105.532 255.800 C 105.538 255.360,105.389 254.640,105.200 254.200 C 104.989 253.710,104.861 253.632,104.868 254.000 M105.656 257.600 C 105.656 257.930,105.811 258.560,106.000 259.000 C 106.217 259.504,106.344 259.578,106.344 259.200 C 106.344 258.870,106.189 258.240,106.000 257.800 C 105.783 257.296,105.656 257.222,105.656 257.600 M106.468 261.200 C 106.488 262.239,107.118 263.946,107.132 263.000 C 107.138 262.560,106.989 261.840,106.800 261.400 C 106.589 260.910,106.461 260.832,106.468 261.200 M288.668 265.446 C 287.825 266.229,287.207 266.940,287.294 267.027 C 287.381 267.114,288.152 266.469,289.007 265.593 C 290.934 263.619,290.729 263.530,288.668 265.446 M107.268 265.200 C 107.288 266.239,107.918 267.946,107.932 267.000 C 107.938 266.560,107.789 265.840,107.600 265.400 C 107.389 264.910,107.261 264.832,107.268 265.200 M281.717 271.823 C 279.471 273.900,277.761 275.599,277.917 275.598 C 278.073 275.596,280.000 273.895,282.200 271.817 C 284.400 269.739,286.110 268.041,286.000 268.043 C 285.890 268.045,283.963 269.746,281.717 271.823 M108.068 269.000 C 108.062 269.440,108.211 270.160,108.400 270.600 C 108.838 271.619,108.838 270.568,108.400 269.200 C 108.143 268.396,108.077 268.357,108.068 269.000 M108.868 272.800 C 108.888 273.839,109.518 275.546,109.532 274.600 C 109.538 274.160,109.389 273.440,109.200 273.000 C 108.989 272.510,108.861 272.432,108.868 272.800 M275.381 277.700 L 273.800 279.400 275.500 277.819 C 277.081 276.348,277.384 276.000,277.081 276.000 C 277.016 276.000,276.251 276.765,275.381 277.700 M109.668 276.800 C 109.688 277.839,110.318 279.546,110.332 278.600 C 110.338 278.160,110.189 277.440,110.000 277.000 C 109.789 276.510,109.661 276.432,109.668 276.800 M271.868 280.646 C 271.025 281.429,270.407 282.140,270.494 282.227 C 270.581 282.314,271.352 281.669,272.207 280.793 C 274.134 278.819,273.929 278.730,271.868 280.646 M110.468 280.800 C 110.488 281.839,111.118 283.546,111.132 282.600 C 111.138 282.160,110.989 281.440,110.800 281.000 C 110.589 280.510,110.461 280.432,110.468 280.800 M268.181 284.100 L 266.600 285.800 268.300 284.219 C 269.881 282.748,270.184 282.400,269.881 282.400 C 269.816 282.400,269.051 283.165,268.181 284.100 M111.268 284.800 C 111.288 285.839,111.918 287.546,111.932 286.600 C 111.938 286.160,111.789 285.440,111.600 285.000 C 111.389 284.510,111.261 284.432,111.268 284.800 M264.706 287.011 C 263.884 287.775,263.354 288.400,263.527 288.400 C 263.701 288.400,264.454 287.770,265.200 287.000 C 266.941 285.203,266.643 285.210,264.706 287.011 M112.068 288.800 C 112.088 289.839,112.718 291.546,112.732 290.600 C 112.738 290.160,112.589 289.440,112.400 289.000 C 112.189 288.510,112.061 288.432,112.068 288.800 M261.191 290.111 C 260.417 290.820,259.093 291.996,258.249 292.725 C 257.406 293.453,256.782 294.116,256.863 294.197 C 256.945 294.278,258.358 293.105,260.005 291.590 C 261.652 290.074,262.910 288.832,262.800 288.828 C 262.690 288.825,261.966 289.402,261.191 290.111 M112.868 292.800 C 112.888 293.839,113.518 295.546,113.532 294.600 C 113.538 294.160,113.389 293.440,113.200 293.000 C 112.989 292.510,112.861 292.432,112.868 292.800 M252.890 297.414 C 251.069 299.056,249.719 300.395,249.890 300.388 C 250.231 300.376,256.723 294.433,256.400 294.430 C 256.290 294.428,254.710 295.771,252.890 297.414 M113.668 296.800 C 113.688 297.839,114.318 299.546,114.332 298.600 C 114.338 298.160,114.189 297.440,114.000 297.000 C 113.789 296.510,113.661 296.432,113.668 296.800 M114.468 300.800 C 114.488 301.839,115.118 303.546,115.132 302.600 C 115.138 302.160,114.989 301.440,114.800 301.000 C 114.589 300.510,114.461 300.432,114.468 300.800 M235.243 314.312 C 227.850 321.744,220.131 329.420,218.092 331.371 C 216.052 333.321,214.459 334.992,214.551 335.085 C 214.644 335.177,222.488 327.501,231.983 318.026 C 241.478 308.552,249.121 300.800,248.967 300.800 C 248.813 300.800,242.637 306.880,235.243 314.312 M115.268 304.800 C 115.288 305.839,115.918 307.546,115.932 306.600 C 115.938 306.160,115.789 305.440,115.600 305.000 C 115.389 304.510,115.261 304.432,115.268 304.800 M116.868 311.600 C 116.888 312.639,117.518 314.346,117.532 313.400 C 117.538 312.960,117.389 312.240,117.200 311.800 C 116.989 311.310,116.861 311.232,116.868 311.600 M117.687 315.800 C 117.691 316.240,117.832 317.140,118.000 317.800 C 118.274 318.878,118.306 318.898,118.313 318.000 C 118.317 317.450,118.176 316.550,118.000 316.000 C 117.749 315.216,117.681 315.173,117.687 315.800 M118.493 321.800 C 118.494 322.460,118.632 323.540,118.800 324.200 C 119.223 325.863,119.242 324.226,118.823 322.200 C 118.545 320.855,118.492 320.791,118.493 321.800 M119.280 327.400 C 119.280 327.840,119.424 328.650,119.600 329.200 C 119.854 329.992,119.920 330.033,119.920 329.400 C 119.920 328.960,119.776 328.150,119.600 327.600 C 119.346 326.808,119.280 326.767,119.280 327.400 M120.056 331.200 C 120.056 331.530,120.211 332.160,120.400 332.600 C 120.617 333.104,120.744 333.178,120.744 332.800 C 120.744 332.470,120.589 331.840,120.400 331.400 C 120.183 330.896,120.056 330.822,120.056 331.200 M122.283 337.130 C 123.417 339.233,126.327 341.905,129.500 343.756 C 130.900 344.572,129.736 343.514,128.031 342.420 C 126.143 341.208,123.807 338.924,122.283 336.800 C 121.593 335.838,121.593 335.851,122.283 337.130 M210.797 338.108 C 209.586 339.259,207.727 340.981,206.667 341.936 C 205.607 342.891,204.802 343.735,204.878 343.811 C 204.954 343.887,206.903 342.170,209.208 339.994 C 211.514 337.818,213.310 336.033,213.200 336.027 C 213.090 336.021,212.009 336.957,210.797 338.108 M200.400 347.649 L 197.400 350.483 200.304 347.996 C 202.893 345.780,203.899 344.783,203.524 344.808 C 203.456 344.813,202.050 346.091,200.400 347.649 M194.090 353.020 C 192.489 354.439,191.319 355.598,191.490 355.597 C 191.660 355.595,193.060 354.433,194.600 353.015 C 198.229 349.673,197.861 349.677,194.090 353.020 M188.800 357.649 C 187.719 358.626,187.479 358.958,188.200 358.481 C 189.306 357.749,191.137 355.984,190.762 356.012 C 190.673 356.019,189.790 356.755,188.800 357.649 M169.800 358.000 C 170.240 358.189,170.870 358.344,171.200 358.344 C 171.578 358.344,171.504 358.217,171.000 358.000 C 170.560 357.811,169.930 357.656,169.600 357.656 C 169.222 357.656,169.296 357.783,169.800 358.000 M176.400 359.490 C 176.730 359.615,177.144 359.961,177.320 360.259 C 177.496 360.556,178.018 360.800,178.481 360.800 C 179.309 360.800,179.308 360.787,178.400 360.000 C 177.893 359.560,177.100 359.214,176.639 359.232 C 176.052 359.254,175.980 359.331,176.400 359.490 M185.429 359.829 C 184.645 360.612,184.640 360.800,185.400 360.800 C 185.730 360.800,186.000 360.545,186.000 360.233 C 186.000 359.922,186.225 359.576,186.500 359.465 C 186.852 359.323,186.860 359.254,186.529 359.232 C 186.269 359.214,185.774 359.483,185.429 359.829 " stroke="none" fill="#fcac90" fill-rule="evenodd"></path><path id="path4" d="M250.700 40.282 C 251.195 40.378,252.005 40.378,252.500 40.282 C 252.995 40.187,252.590 40.109,251.600 40.109 C 250.610 40.109,250.205 40.187,250.700 40.282 M292.000 58.200 C 292.746 58.970,293.447 59.600,293.557 59.600 C 293.667 59.600,293.146 58.970,292.400 58.200 C 291.654 57.430,290.953 56.800,290.843 56.800 C 290.733 56.800,291.254 57.430,292.000 58.200 M296.924 69.400 C 296.926 70.720,297.001 71.212,297.090 70.493 C 297.179 69.774,297.177 68.694,297.086 68.093 C 296.995 67.492,296.922 68.080,296.924 69.400 M228.395 321.100 L 221.800 327.800 228.500 321.205 C 234.725 315.077,235.381 314.400,235.095 314.400 C 235.038 314.400,232.023 317.415,228.395 321.100 " stroke="none" fill="#fca484" fill-rule="evenodd"></path></g></svg>